<svg width="650" height="516" viewBox="0 0 650 516" fill="none" xmlns="http://www.w3.org/2000/svg">
<path d="M425 516H0V472H425V516ZM630 0C641.046 0 650 8.95431 650 20V496C650 507.046 641.046 516 630 516H456C444.954 516 436 507.046 436 496V484C436 472.954 427.046 464 416 464H98C89.3016 464 82.224 457.059 82.0049 448.413L81.9951 447.587C81.776 438.941 74.6984 432 66 432H20C8.95431 432 5.1544e-07 423.046 0 412V20C5.15406e-07 8.95431 8.95431 1.00672e-08 20 0H630ZM72 463H0V436H72V463Z" fill="#D9D9D9"/>
</svg>
