<svg preserveAspectRatio="none" width="100%" height="100%" overflow="visible" style="display: block;" viewBox="0 0 22 22" fill="none" xmlns="http://www.w3.org/2000/svg">
<g id="Vector">
<path d="M7.5625 13.0776C7.66741 14.3888 8.7025 15.4108 10.5629 15.5318V16.5H11.3882V15.5251C13.3115 15.3906 14.4375 14.3619 14.4375 12.8692C14.4375 11.511 13.5773 10.8117 12.0386 10.4487L11.3882 10.294V7.65831C12.2134 7.75244 12.738 8.20293 12.8639 8.82824H14.3116C14.2067 7.56418 13.1226 6.57579 11.3882 6.46822V5.5H10.5629V6.48839C8.91932 6.64976 7.80029 7.63814 7.80029 9.03668C7.80029 10.2738 8.63257 11.0605 10.0174 11.3833L10.5629 11.5177V14.3148C9.71662 14.187 9.15711 13.7231 9.03122 13.0776H7.5625ZM10.5559 10.099C9.7446 9.91076 9.30398 9.52751 9.30398 8.94927C9.30398 8.30379 9.77956 7.81968 10.5629 7.67848V10.099H10.5559ZM11.5071 11.7396C12.4932 11.9682 12.9478 12.338 12.9478 12.9902C12.9478 13.7366 12.3813 14.2476 11.3882 14.3417V11.7127L11.5071 11.7396Z" fill="var(--fill-0, #B8963E)"/>
<path d="M11 20.625C5.68426 20.625 1.375 16.3157 1.375 11C1.375 5.68426 5.68426 1.375 11 1.375C16.3157 1.375 20.625 5.68426 20.625 11C20.625 16.3157 16.3157 20.625 11 20.625ZM11 22C17.0751 22 22 17.0751 22 11C22 4.92487 17.0751 0 11 0C4.92487 0 0 4.92487 0 11C0 17.0751 4.92487 22 11 22Z" fill="var(--fill-0, #B8963E)"/>
<path d="M11 18.5625C6.82335 18.5625 3.4375 15.1767 3.4375 11C3.4375 6.82335 6.82335 3.4375 11 3.4375C15.1767 3.4375 18.5625 6.82335 18.5625 11C18.5625 15.1767 15.1767 18.5625 11 18.5625ZM11 19.25C15.5563 19.25 19.25 15.5563 19.25 11C19.25 6.44365 15.5563 2.75 11 2.75C6.44365 2.75 2.75 6.44365 2.75 11C2.75 15.5563 6.44365 19.25 11 19.25Z" fill="var(--fill-0, #B8963E)"/>
</g>
</svg>
