<svg width="44" height="40" viewBox="0 0 44 40" fill="none" xmlns="http://www.w3.org/2000/svg">
<path d="M8 32H4C1.8 32 0 33.8 0 36C0 38.2 1.8 40 4 40H8C10.2 40 12 38.2 12 36C12 33.8 10.2 32 8 32Z" fill="url(#paint0_linear_2746_14191)"/>
<path d="M24 28H20C17.8 28 16 29.8 16 32V36C16 38.2 17.8 40 20 40H24C26.2 40 28 38.2 28 36V32C28 29.8 26.2 28 24 28Z" fill="url(#paint1_linear_2746_14191)"/>
<path d="M40 20H36C33.8 20 32 21.8 32 24V36C32 38.2 33.8 40 36 40H40C42.2 40 44 38.2 44 36V24C44 21.8 42.2 20 40 20Z" fill="url(#paint2_linear_2746_14191)"/>
<path d="M42 0H28.8C27 0 26.2 2.2 27.4 3.4L31.2 7.2C23.8 15.6 13.2 22 2 22C0.8 22 0 22.8 0 24C0 25.2 0.8 26 2 26C15.4 26 27.8 22.2 36.8 12.8L40.4 16.4C41.6 17.6 43.8 16.8 43.8 15V2C44 0.8 43.2 0 42 0Z" fill="url(#paint3_linear_2746_14191)"/>
<defs>
<linearGradient id="paint0_linear_2746_14191" x1="0.381642" y1="37.7778" x2="59.6003" y2="33.5013" gradientUnits="userSpaceOnUse">
<stop stop-color="#FFD45C"/>
<stop offset="1" stop-color="#9E5625"/>
</linearGradient>
<linearGradient id="paint1_linear_2746_14191" x1="0.381642" y1="37.7778" x2="59.6003" y2="33.5013" gradientUnits="userSpaceOnUse">
<stop stop-color="#FFD45C"/>
<stop offset="1" stop-color="#9E5625"/>
</linearGradient>
<linearGradient id="paint2_linear_2746_14191" x1="0.381642" y1="37.7778" x2="59.6003" y2="33.5013" gradientUnits="userSpaceOnUse">
<stop stop-color="#FFD45C"/>
<stop offset="1" stop-color="#9E5625"/>
</linearGradient>
<linearGradient id="paint3_linear_2746_14191" x1="0.381642" y1="37.7778" x2="59.6003" y2="33.5013" gradientUnits="userSpaceOnUse">
<stop stop-color="#FFD45C"/>
<stop offset="1" stop-color="#9E5625"/>
</linearGradient>
</defs>
</svg>
