<svg width="40" height="35" viewBox="0 0 40 35" fill="none" xmlns="http://www.w3.org/2000/svg">
<path d="M5 0C2.23858 0 0 2.23858 0 5V25L6.45965e-05 25.0257C0.0139 27.7753 2.24715 30 5 30H18.75C19.4404 30 20 29.4404 20 28.75C20 28.0596 19.4404 27.5 18.75 27.5H5C3.84287 27.5 2.86936 26.7139 2.58441 25.6465L16.6854 16.969L20 18.9577L37.5 8.45774V16.25C37.5 16.9404 38.0596 17.5 38.75 17.5C39.4404 17.5 40 16.9404 40 16.25V5C40 2.23858 37.7614 0 35 0H5ZM14.2702 15.5199L2.5 22.763V8.45774L14.2702 15.5199ZM2.5 5.54226V5C2.5 3.61929 3.61929 2.5 5 2.5H35C36.3807 2.5 37.5 3.61929 37.5 5V5.54226L20 16.0423L2.5 5.54226Z" fill="white"/>
<path d="M35.6168 30.6715C38.1418 30.6715 39.5846 28.529 39.5846 25.6106V25.0859C39.5846 21.0743 36.6006 17.5 31.2992 17.5H31.2117C26.0525 17.5 22.5 20.8994 22.5 26.0806V26.6162C22.5 32.0487 26.0962 35 30.8948 35H31.0041C32.4906 35 33.5509 34.8142 34.0974 34.5628V32.7374C33.4853 33.0106 32.4141 33.1855 31.1462 33.1855H31.0369C27.703 33.1855 24.6096 31.218 24.6096 26.5506V26.1571C24.6096 22.0144 27.2548 19.3473 31.2117 19.3473H31.3101C35.1468 19.3473 37.5187 21.9706 37.5187 25.1624V25.4575C37.5187 27.8951 36.7099 28.9335 35.9229 28.9335C35.3435 28.9335 34.8954 28.5618 34.8954 27.8841V22.4079H32.6327V23.8289H32.5562C32.3485 23.0856 31.638 22.2548 30.1733 22.2548C28.2277 22.2548 27.0253 23.643 27.0253 25.7527V27.0753C27.0253 29.3051 28.2495 30.6605 30.1733 30.6605C31.3538 30.6605 32.4141 30.0921 32.7092 29.0537H32.8186C33.1137 30.1031 34.3598 30.6715 35.6168 30.6715ZM29.4847 26.7036V26.1352C29.4847 24.7689 30.0531 24.1568 30.9166 24.1568C31.6599 24.1568 32.3485 24.6377 32.3485 25.9275V26.8457C32.3485 28.2776 31.7146 28.7039 30.9385 28.7039C30.0531 28.7039 29.4847 28.1683 29.4847 26.7036Z" fill="white"/>
</svg>
