<svg width="31" height="30" viewBox="0 0 31 30" fill="none" xmlns="http://www.w3.org/2000/svg">
<path d="M22.6042 13.125C27.034 13.125 30.625 16.716 30.625 21.1458C30.625 25.5757 27.034 29.1667 22.6042 29.1667C18.1743 29.1667 14.5833 25.5757 14.5833 21.1458C14.5833 16.716 18.1743 13.125 22.6042 13.125ZM22.6042 16.0405L22.4731 16.0523C22.1754 16.1063 21.9408 16.3411 21.8868 16.6387L21.875 16.7697L21.8744 20.4155L18.2258 20.4167L18.0947 20.4285C17.7971 20.4824 17.5623 20.7171 17.5083 21.0147L17.4966 21.1458L17.5083 21.2769C17.5623 21.5746 17.7971 21.8092 18.0947 21.8632L18.2258 21.875L21.876 21.8738L21.8766 25.5259L21.8884 25.657C21.9424 25.9547 22.177 26.1893 22.4747 26.2433L22.6058 26.2551L22.7369 26.2433C23.0345 26.1893 23.2692 25.9547 23.3233 25.657L23.3349 25.5259L23.3344 21.8738L26.9859 21.875L27.1168 21.8632C27.4145 21.8092 27.6493 21.5746 27.7032 21.2769L27.715 21.1458L27.7032 21.0147C27.6493 20.7171 27.4145 20.4824 27.1168 20.4285L26.9859 20.4167L23.3328 20.4155L23.3333 16.7697L23.3215 16.6387C23.2676 16.3411 23.0329 16.1063 22.7353 16.0523L22.6042 16.0405ZM17.8704 10.2083C19.0875 10.2083 20.1498 10.8709 20.7162 11.8551C16.3848 12.7308 13.125 16.5576 13.125 21.1458C13.125 23.0259 13.6723 24.7781 14.6163 26.2517L14.5877 26.25C10.9625 26.25 8.02365 23.3112 8.02365 19.686V13.4896C8.02365 11.6775 9.49271 10.2083 11.3049 10.2083H17.8704ZM7.88441 10.2088C7.13549 10.9893 6.65118 12.0257 6.57567 13.1739L6.56532 13.4896V19.686C6.56532 20.9207 6.84424 22.0903 7.34252 23.135C6.86258 23.2648 6.35686 23.3333 5.83514 23.3333C2.61249 23.3333 0 20.7209 0 17.4982V13.4896C0 11.7529 1.34919 10.3314 3.05659 10.2159L3.28125 10.2083L7.88441 10.2088ZM25.8854 10.2083C27.6975 10.2083 29.1667 11.6775 29.1667 13.4896L29.1678 14.3068C27.4645 12.6716 25.1517 11.6667 22.6042 11.6667L22.2495 11.6732C22.0227 11.1265 21.6955 10.6304 21.2909 10.2088L25.8854 10.2083ZM24.0625 1.45833C26.076 1.45833 27.7083 3.09063 27.7083 5.10417C27.7083 7.1177 26.076 8.75 24.0625 8.75C22.049 8.75 20.4167 7.1177 20.4167 5.10417C20.4167 3.09063 22.049 1.45833 24.0625 1.45833ZM14.5833 0C16.9996 0 18.9583 1.95876 18.9583 4.375C18.9583 6.79124 16.9996 8.75 14.5833 8.75C12.167 8.75 10.2083 6.79124 10.2083 4.375C10.2083 1.95876 12.167 0 14.5833 0ZM5.10417 1.45833C7.1177 1.45833 8.75 3.09063 8.75 5.10417C8.75 7.1177 7.1177 8.75 5.10417 8.75C3.09063 8.75 1.45833 7.1177 1.45833 5.10417C1.45833 3.09063 3.09063 1.45833 5.10417 1.45833Z" fill="white"/>
</svg>
