<svg width="35" height="35" viewBox="0 0 35 35" fill="none" xmlns="http://www.w3.org/2000/svg">
<path d="M31.25 28.75H23.75C22.7554 28.75 21.8016 29.1451 21.0983 29.8484C20.3951 30.5516 20 31.5054 20 32.5V33.75C20 34.4404 20.5596 35 21.25 35C21.9404 35 22.5 34.4404 22.5 33.75V32.5C22.5 32.1685 22.6317 31.8505 22.8661 31.6161C23.1005 31.3817 23.4185 31.25 23.75 31.25H31.25C31.5815 31.25 31.8995 31.3817 32.1339 31.6161C32.3683 31.8505 32.5 32.1685 32.5 32.5V33.75C32.5 34.4404 33.0596 35 33.75 35C34.4404 35 35 34.4404 35 33.75V32.5C35 31.5054 34.6049 30.5516 33.9016 29.8484C33.1984 29.1451 32.2446 28.75 31.25 28.75Z" fill="url(#paint0_linear_2957_2438)"/>
<path d="M22.5 22.5C22.5 23.4889 22.7932 24.4556 23.3427 25.2779C23.8921 26.1001 24.673 26.741 25.5866 27.1194C26.5002 27.4978 27.5055 27.5969 28.4755 27.4039C29.4454 27.211 30.3363 26.7348 31.0355 26.0355C31.7348 25.3363 32.211 24.4454 32.4039 23.4755C32.5969 22.5055 32.4978 21.5002 32.1194 20.5866C31.741 19.673 31.1001 18.8921 30.2779 18.3427C29.4556 17.7932 28.4889 17.5 27.5 17.5C26.1739 17.5 24.9021 18.0268 23.9645 18.9645C23.0268 19.9022 22.5 21.1739 22.5 22.5ZM30 22.5C30 22.9945 29.8534 23.4778 29.5787 23.8889C29.304 24.3001 28.9135 24.6205 28.4567 24.8097C27.9999 24.9989 27.4972 25.0484 27.0123 24.952C26.5273 24.8555 26.0819 24.6174 25.7322 24.2678C25.3826 23.9181 25.1445 23.4727 25.048 22.9877C24.9516 22.5028 25.0011 22.0001 25.1903 21.5433C25.3795 21.0865 25.7 20.696 26.1111 20.4213C26.5222 20.1466 27.0055 20 27.5 20C28.163 20 28.7989 20.2634 29.2678 20.7322C29.7366 21.2011 30 21.837 30 22.5Z" fill="url(#paint1_linear_2957_2438)"/>
<path d="M5 23.75C5 23.0596 4.44036 22.5 3.75 22.5C3.05964 22.5 2.5 23.0596 2.5 23.75C2.5 26.0706 3.42187 28.2962 5.06282 29.9372C6.70376 31.5781 8.92936 32.5 11.25 32.5H13.75C14.4404 32.5 15 31.9404 15 31.25C15 30.5596 14.4404 30 13.75 30H11.25C9.5924 30 8.00268 29.3415 6.83058 28.1694C5.65848 26.9973 5 25.4076 5 23.75Z" fill="url(#paint2_linear_2957_2438)"/>
<path d="M28.75 10H22.5C21.8096 10 21.25 10.5596 21.25 11.25C21.25 11.9404 21.8096 12.5 22.5 12.5H28.75C29.4404 12.5 30 11.9404 30 11.25C30 10.5596 29.4404 10 28.75 10Z" fill="url(#paint3_linear_2957_2438)"/>
<path d="M32.5 5H22.5C21.8096 5 21.25 5.55965 21.25 6.25C21.25 6.94036 21.8096 7.5 22.5 7.5H32.5C33.1904 7.5 33.75 6.94036 33.75 6.25C33.75 5.55965 33.1904 5 32.5 5Z" fill="url(#paint4_linear_2957_2438)"/>
<path d="M32.5 2.09152e-06H22.5C21.8096 2.09152e-06 21.25 0.559646 21.25 1.25C21.25 1.94036 21.8096 2.5 22.5 2.5H32.5C33.1904 2.5 33.75 1.94036 33.75 1.25C33.75 0.559646 33.1904 2.09152e-06 32.5 2.09152e-06Z" fill="url(#paint5_linear_2957_2438)"/>
<path d="M11.25 11.25H3.75C2.75544 11.25 1.80161 11.6451 1.09835 12.3484C0.395088 13.0516 0 14.0054 0 15V16.25C0 16.9404 0.559644 17.5 1.25 17.5C1.94036 17.5 2.5 16.9404 2.5 16.25V15C2.5 14.6685 2.6317 14.3505 2.86612 14.1161C3.10054 13.8817 3.41848 13.75 3.75 13.75H11.25C11.5815 13.75 11.8995 13.8817 12.1339 14.1161C12.3683 14.3505 12.5 14.6685 12.5 15V16.25C12.5 16.9404 13.0596 17.5 13.75 17.5C14.4404 17.5 15 16.9404 15 16.25V15C15 14.0054 14.6049 13.0516 13.9017 12.3484C13.1984 11.6451 12.2446 11.25 11.25 11.25Z" fill="url(#paint6_linear_2957_2438)"/>
<path d="M7.5 10C8.48891 10 9.4556 9.70676 10.2779 9.15735C11.1001 8.60794 11.741 7.82705 12.1194 6.91342C12.4978 5.99979 12.5969 4.99446 12.4039 4.02455C12.211 3.05465 11.7348 2.16373 11.0355 1.46447C10.3363 0.765206 9.44536 0.289002 8.47545 0.0960758C7.50555 -0.0968502 6.50021 0.00216641 5.58658 0.380605C4.67295 0.759043 3.89206 1.39991 3.34265 2.22215C2.79324 3.0444 2.5 4.0111 2.5 5C2.5 6.32608 3.02678 7.59785 3.96447 8.53554C4.90215 9.47322 6.17392 10 7.5 10ZM7.5 2.5C7.99445 2.5 8.4778 2.64662 8.88893 2.92133C9.30005 3.19603 9.62048 3.58648 9.8097 4.04329C9.99892 4.50011 10.0484 5.00278 9.95196 5.48773C9.8555 5.97268 9.6174 6.41814 9.26777 6.76777C8.91813 7.1174 8.47268 7.3555 7.98773 7.45197C7.50277 7.54843 7.00011 7.49892 6.54329 7.3097C6.08648 7.12048 5.69603 6.80005 5.42133 6.38893C5.14662 5.9778 5 5.49446 5 5C5 4.33696 5.26339 3.70108 5.73223 3.23223C6.20107 2.76339 6.83696 2.5 7.5 2.5Z" fill="url(#paint7_linear_2957_2438)"/>
<defs>
<linearGradient id="paint0_linear_2957_2438" x1="0.303579" y1="33.0556" x2="47.4518" y2="29.9603" gradientUnits="userSpaceOnUse">
<stop stop-color="#FFD45C"/>
<stop offset="1" stop-color="#9E5625"/>
</linearGradient>
<linearGradient id="paint1_linear_2957_2438" x1="0.303579" y1="33.0556" x2="47.4518" y2="29.9603" gradientUnits="userSpaceOnUse">
<stop stop-color="#FFD45C"/>
<stop offset="1" stop-color="#9E5625"/>
</linearGradient>
<linearGradient id="paint2_linear_2957_2438" x1="0.303579" y1="33.0556" x2="47.4518" y2="29.9603" gradientUnits="userSpaceOnUse">
<stop stop-color="#FFD45C"/>
<stop offset="1" stop-color="#9E5625"/>
</linearGradient>
<linearGradient id="paint3_linear_2957_2438" x1="0.303579" y1="33.0556" x2="47.4518" y2="29.9603" gradientUnits="userSpaceOnUse">
<stop stop-color="#FFD45C"/>
<stop offset="1" stop-color="#9E5625"/>
</linearGradient>
<linearGradient id="paint4_linear_2957_2438" x1="0.303579" y1="33.0556" x2="47.4518" y2="29.9603" gradientUnits="userSpaceOnUse">
<stop stop-color="#FFD45C"/>
<stop offset="1" stop-color="#9E5625"/>
</linearGradient>
<linearGradient id="paint5_linear_2957_2438" x1="0.303579" y1="33.0556" x2="47.4518" y2="29.9603" gradientUnits="userSpaceOnUse">
<stop stop-color="#FFD45C"/>
<stop offset="1" stop-color="#9E5625"/>
</linearGradient>
<linearGradient id="paint6_linear_2957_2438" x1="0.303579" y1="33.0556" x2="47.4518" y2="29.9603" gradientUnits="userSpaceOnUse">
<stop stop-color="#FFD45C"/>
<stop offset="1" stop-color="#9E5625"/>
</linearGradient>
<linearGradient id="paint7_linear_2957_2438" x1="0.303579" y1="33.0556" x2="47.4518" y2="29.9603" gradientUnits="userSpaceOnUse">
<stop stop-color="#FFD45C"/>
<stop offset="1" stop-color="#9E5625"/>
</linearGradient>
</defs>
</svg>
