<svg width="38" height="38" viewBox="0 0 38 38" fill="none" xmlns="http://www.w3.org/2000/svg">
<path d="M16.6288 6.85424V32.3661C16.6282 33.1577 16.3483 33.9236 15.8384 34.5291C15.3285 35.1345 14.6213 35.5406 13.8414 35.6757C13.0614 35.8108 12.2589 35.6664 11.575 35.2677C10.8911 34.8691 10.3699 34.242 10.1031 33.4967L6.00279 21.7511M6.00279 21.7511C4.3818 21.0619 3.04871 19.8356 2.22912 18.2764C1.40953 16.7173 1.15378 14.9228 1.50514 13.1967C1.8565 11.4706 2.79339 9.91889 4.15727 8.8042C5.52116 7.68951 7.22825 7.08027 8.98968 7.0796H12.4884C20.3185 7.0796 27.0504 4.72284 29.9972 1.35004V28.088C27.0504 24.7152 20.3204 22.3584 12.4884 22.3584H8.98968C7.96349 22.3593 6.94765 22.1515 6.00279 21.7511ZM29.9972 20.4486C31.5167 20.4486 32.974 19.8449 34.0485 18.7704C35.1229 17.6959 35.7266 16.2386 35.7266 14.719C35.7266 13.1994 35.1229 11.7421 34.0485 10.6676C32.974 9.5931 31.5167 8.98946 29.9972 8.98946" stroke="url(#paint0_linear_3109_14964)" stroke-width="2.7" stroke-linecap="round" stroke-linejoin="round"/>
<defs>
<linearGradient id="paint0_linear_3109_14964" x1="1.64972" y1="33.8153" x2="47.956" y2="30.7753" gradientUnits="userSpaceOnUse">
<stop stop-color="#FFD45C"/>
<stop offset="1" stop-color="#9E5625"/>
</linearGradient>
</defs>
</svg>
