<svg width="14" height="14" viewBox="0 0 14 14" fill="currentColor" xmlns="http://www.w3.org/2000/svg">
<path d="M0 1C0 0.447715 0.447715 0 1 0H3C3.55228 0 4 0.447715 4 1V3C4 3.55228 3.55228 4 3 4H1C0.447715 4 0 3.55228 0 3V1Z" fill="#232D39"/>
<path d="M5 1C5 0.447715 5.44772 0 6 0H8C8.55228 0 9 0.447715 9 1V3C9 3.55228 8.55228 4 8 4H6C5.44772 4 5 3.55228 5 3V1Z" fill="#232D39"/>
<path d="M10 1C10 0.447715 10.4477 0 11 0H13C13.5523 0 14 0.447715 14 1V3C14 3.55228 13.5523 4 13 4H11C10.4477 4 10 3.55228 10 3V1Z" fill="#232D39"/>
<path d="M0 6C0 5.44772 0.447715 5 1 5H3C3.55228 5 4 5.44772 4 6V8C4 8.55228 3.55228 9 3 9H1C0.447715 9 0 8.55228 0 8V6Z" fill="#232D39"/>
<path d="M5 6C5 5.44772 5.44772 5 6 5H8C8.55228 5 9 5.44772 9 6V8C9 8.55228 8.55228 9 8 9H6C5.44772 9 5 8.55228 5 8V6Z" fill="#232D39"/>
<path d="M10 6C10 5.44772 10.4477 5 11 5H13C13.5523 5 14 5.44772 14 6V8C14 8.55228 13.5523 9 13 9H11C10.4477 9 10 8.55228 10 8V6Z" fill="#232D39"/>
<path d="M0 11C0 10.4477 0.447715 10 1 10H3C3.55228 10 4 10.4477 4 11V13C4 13.5523 3.55228 14 3 14H1C0.447715 14 0 13.5523 0 13V11Z" fill="#232D39"/>
<path d="M5 11C5 10.4477 5.44772 10 6 10H8C8.55228 10 9 10.4477 9 11V13C9 13.5523 8.55228 14 8 14H6C5.44772 14 5 13.5523 5 13V11Z" fill="#232D39"/>
<path d="M10 11C10 10.4477 10.4477 10 11 10H13C13.5523 10 14 10.4477 14 11V13C14 13.5523 13.5523 14 13 14H11C10.4477 14 10 13.5523 10 13V11Z" fill="#232D39"/>
</svg>
