<svg width="36" height="34" viewBox="0 0 36 34" fill="none" xmlns="http://www.w3.org/2000/svg">
<path d="M18.4011 0.0502308L18.5571 0.0598307H24.0675L24.1947 0.0526307C24.8778 -0.0220689 25.5672 -0.0172365 26.2491 0.0670308C27.1629 0.111497 28.0545 0.364342 28.8555 0.806231C30.3675 1.49263 31.6875 2.59903 32.6283 4.04623C33.4955 5.37613 33.986 6.9162 34.0477 8.50264C34.1094 10.0891 33.74 11.6626 32.9787 13.0558L25.2627 5.24143C25.1509 5.12863 25.0178 5.03914 24.8712 4.97817C24.7245 4.9172 24.5672 4.88595 24.4083 4.88623H21.2139C20.9524 4.88588 20.6979 4.971 20.4891 5.12863L15.3339 9.03343C15.0187 9.27149 14.6548 9.43689 14.2681 9.51777C13.8815 9.59865 13.4818 9.59301 13.0976 9.50126C12.7134 9.40952 12.3542 9.23393 12.0459 8.98708C11.7375 8.74022 11.4876 8.42823 11.3139 8.07343C11.0482 7.5253 10.9809 6.90192 11.1236 6.30971C11.2663 5.7175 11.6101 5.19317 12.0963 4.82623L18.4011 0.0502308ZM8.80834 21.3022L8.77474 21.3334L6.94354 23.1574L6.91234 23.1862C6.6398 23.4416 6.27869 23.5811 5.90523 23.5753C5.53177 23.5695 5.17518 23.4188 4.91074 23.155C4.77685 23.0233 4.67053 22.8662 4.59795 22.6929C4.52538 22.5196 4.488 22.3337 4.488 22.1458C4.488 21.958 4.52538 21.772 4.59795 21.5987C4.67053 21.4255 4.77685 21.2684 4.91074 21.1366L6.74434 19.315C7.01424 19.0461 7.37972 18.8951 7.76074 18.8951C8.14175 18.8951 8.50724 19.0461 8.77714 19.315C9.32914 19.8622 9.33874 20.743 8.80834 21.3022ZM8.61394 24.8782C8.08594 25.4374 8.09554 26.3182 8.64514 26.8654C8.91504 27.1344 9.28052 27.2854 9.66154 27.2854C10.0426 27.2854 10.408 27.1344 10.6779 26.8654L12.5115 25.0438C12.662 24.8947 12.7772 24.7138 12.8486 24.5144C12.9201 24.315 12.9461 24.1021 12.9247 23.8913C12.9033 23.6806 12.8351 23.4773 12.725 23.2963C12.6149 23.1154 12.4657 22.9613 12.2883 22.8454C12.0186 22.6673 11.6967 22.5851 11.3746 22.6121C11.0524 22.6391 10.7487 22.7737 10.5123 22.9942L10.4787 23.0254L8.64754 24.847L8.61394 24.8782ZM4.28914 16.3534C4.42302 16.4852 4.52934 16.6423 4.60192 16.8155C4.6745 16.9888 4.71187 17.1748 4.71187 17.3626C4.71187 17.5505 4.6745 17.7365 4.60192 17.9097C4.52934 18.083 4.42302 18.2401 4.28914 18.3718L2.45554 20.1934C2.18563 20.4624 1.82015 20.6134 1.43914 20.6134C1.05812 20.6134 0.692639 20.4624 0.422737 20.1934C0.288855 20.0617 0.18253 19.9046 0.109953 19.7313C0.0373769 19.558 0 19.3721 0 19.1842C0 18.9964 0.0373769 18.8104 0.109953 18.6372C0.18253 18.4639 0.288855 18.3068 0.422737 18.175L2.25634 16.351C2.52624 16.0821 2.89172 15.9311 3.27274 15.9311C3.65375 15.9311 4.01924 16.0821 4.28914 16.351M16.2459 26.7334C16.3798 26.8652 16.4861 27.0223 16.5587 27.1956C16.6313 27.3688 16.6687 27.5548 16.6687 27.7426C16.6687 27.9305 16.6313 28.1164 16.5587 28.2897C16.4861 28.463 16.3798 28.6201 16.2459 28.7518L14.4123 30.5758C14.1424 30.8448 13.777 30.9958 13.3959 30.9958C13.0149 30.9958 12.6494 30.8448 12.3795 30.5758C12.1504 30.3502 12.005 30.0533 11.967 29.7341C11.9291 29.4148 12.0009 29.0921 12.1707 28.819L12.1779 28.8094C12.2353 28.7173 12.303 28.632 12.3795 28.555L14.2131 26.7334C14.483 26.4645 14.8485 26.3135 15.2295 26.3135C15.6106 26.3135 15.976 26.4645 16.2459 26.7334ZM3.76594 3.38623C5.1004 2.06085 6.74146 1.08544 8.54344 0.54661C10.3454 0.00777665 12.2525 -0.0778158 14.0955 0.297431L10.6467 2.91343C10.1181 3.31398 9.67384 3.81506 9.33951 4.38788C9.00519 4.9607 8.78738 5.59395 8.69861 6.25123C8.60984 6.90851 8.65187 7.57686 8.82227 8.21784C8.99267 8.85882 9.28809 9.4598 9.69154 9.98623C10.5076 11.0507 11.7116 11.7491 13.0408 11.9289C14.37 12.1088 15.7163 11.7555 16.7859 10.9462L21.6195 7.28623H23.8011L28.4523 11.9062L28.4619 11.8942L32.3211 15.8038L32.3787 15.859L34.4547 17.935C34.8946 18.3801 35.1474 18.9767 35.1611 19.6022C35.1748 20.2278 34.9484 20.8349 34.5284 21.2988C34.1085 21.7627 33.5268 22.0481 32.903 22.0965C32.2791 22.1449 31.6604 21.9526 31.1739 21.559L30.9987 21.3862L30.8691 21.2734L28.8291 19.2334C28.6041 19.0081 28.2988 18.8814 27.9804 18.8812C27.6619 18.8809 27.3565 19.0072 27.1311 19.2322C26.9058 19.4572 26.7791 19.7625 26.7789 20.081C26.7786 20.3994 26.9049 20.7049 27.1299 20.9302L29.2947 23.095C29.3779 23.175 29.4619 23.2526 29.5467 23.3278L29.6187 23.3998C29.93 23.7108 30.105 24.1326 30.1052 24.5726C30.1054 25.0125 29.9309 25.4346 29.6199 25.7458C29.309 26.0571 28.8871 26.2321 28.4472 26.2323C28.0072 26.2325 27.5852 26.058 27.2739 25.747L26.9547 25.4302C26.7859 25.2619 26.5708 25.1477 26.3368 25.1021C26.1028 25.0566 25.8605 25.0817 25.6409 25.1744C25.4212 25.2671 25.2342 25.4231 25.1036 25.6226C24.973 25.822 24.9047 26.0558 24.9075 26.2942C24.9044 26.4555 24.9338 26.6158 24.994 26.7655C25.0542 26.9152 25.144 27.0512 25.2579 27.1654L25.6779 27.5854C25.8187 27.7262 25.9303 27.8932 26.0065 28.0771C26.0826 28.261 26.1218 28.458 26.1218 28.657C26.1218 28.856 26.0826 29.0531 26.0065 29.237C25.9303 29.4208 25.8187 29.5879 25.6779 29.7286C25.5372 29.8694 25.3701 29.981 25.1863 30.0571C25.0024 30.1333 24.8054 30.1725 24.6063 30.1725C24.4073 30.1725 24.2103 30.1333 24.0264 30.0571C23.8425 29.981 23.6755 29.8694 23.5347 29.7286L23.3211 29.5126C23.248 29.4276 23.172 29.3451 23.0931 29.2654L22.7019 28.8742C22.4756 28.6556 22.1725 28.5347 21.8579 28.5374C21.5432 28.5402 21.2422 28.6664 21.0198 28.8888C20.7973 29.1113 20.6711 29.4123 20.6683 29.7269C20.6656 30.0416 20.7865 30.3447 21.0051 30.571L21.2979 30.8638C21.3347 30.9118 21.3747 30.959 21.4179 31.0054L21.5355 31.1206C21.7749 31.4312 21.8881 31.8207 21.8525 32.2112C21.8169 32.6017 21.6351 32.9644 21.3435 33.2265C21.0519 33.4887 20.6721 33.631 20.28 33.625C19.8879 33.619 19.5126 33.4652 19.2291 33.1942L17.1531 31.2382L17.9499 30.4462C18.3065 30.0928 18.5896 29.6722 18.7827 29.2088C18.9759 28.7454 19.0753 28.2483 19.0753 27.7462C19.0753 27.2442 18.9759 26.7471 18.7827 26.2837C18.5896 25.8202 18.3065 25.3997 17.9499 25.0462C17.2545 24.3534 16.3201 23.9532 15.3387 23.9278C15.3121 22.9514 14.9098 22.0229 14.2155 21.3358C13.5207 20.6435 12.5873 20.2434 11.6067 20.2174C11.5795 19.2407 11.1763 18.3121 10.4811 17.6254C10.037 17.1816 9.49074 16.8535 8.89032 16.6698C8.28989 16.4861 7.65359 16.4525 7.03714 16.5718C6.88072 15.8477 6.51814 15.1842 5.99314 14.6614C5.31691 13.992 4.41743 13.5955 3.46704 13.5482C2.51666 13.5008 1.58221 13.8057 0.842737 14.4046C0.30607 12.474 0.294504 10.4352 0.809233 8.4986C1.32396 6.56204 2.34633 4.79799 3.77074 3.38863" fill="url(#paint0_linear_2957_14054)"/>
<defs>
<linearGradient id="paint0_linear_2957_14054" x1="0.304981" y1="31.7571" x2="47.652" y2="28.5068" gradientUnits="userSpaceOnUse">
<stop stop-color="#FFD45C"/>
<stop offset="1" stop-color="#9E5625"/>
</linearGradient>
</defs>
</svg>
