<svg width="48" height="46" viewBox="0 0 48 46" fill="none" xmlns="http://www.w3.org/2000/svg">
<path d="M12.7967 11.8629C10.1425 9.15086 10.1425 4.74607 12.7967 2.03403C15.4509 -0.67801 19.7482 -0.67801 22.4023 2.03403L24.0003 3.67217L25.5982 2.03403C28.2524 -0.67801 32.5497 -0.67801 35.2039 2.03403C37.8581 4.74607 37.8581 9.15086 35.2039 11.8629L26.0316 21.2549C25.4718 21.8283 24.7406 22.1104 24.0003 22.1104C23.26 22.1104 22.5287 21.8283 21.969 21.2549L12.7967 11.8629ZM49.2964 30.0099C50.479 31.6298 50.136 33.905 48.529 35.0972L37.0997 43.5883C34.9872 45.1536 32.4414 46 29.8142 46H0.888921C-0.709014 46 -2 44.6986 -2 43.0877V37.2632C-2 35.6524 -0.709014 34.351 0.888921 34.351H4.21118L8.2647 31.0747C10.314 29.4183 12.8599 28.5265 15.487 28.5265H29.7781C31.3761 28.5265 32.667 29.8279 32.667 31.4387C32.667 33.0496 31.3761 34.351 29.7781 34.351H22.5558C21.7614 34.351 21.1114 35.0062 21.1114 35.8071C21.1114 36.608 21.7614 37.2632 22.5558 37.2632H33.4434L44.2498 29.2363C45.8568 28.0441 48.1137 28.39 49.2964 30.0099Z" fill="url(#paint0_linear_2957_14046)"/>
<defs>
<linearGradient id="paint0_linear_2957_14046" x1="-1.54897" y1="43.4444" x2="68.4164" y2="38.2521" gradientUnits="userSpaceOnUse">
<stop stop-color="#FFD45C"/>
<stop offset="1" stop-color="#9E5625"/>
</linearGradient>
</defs>
</svg>
