<svg width="40" height="40" viewBox="0 0 40 40" fill="none" xmlns="http://www.w3.org/2000/svg">
<g clip-path="url(#clip0_2957_15848)">
<path d="M20 2.5C16.5388 2.5 13.1554 3.52636 10.2775 5.44928C7.39967 7.37221 5.15665 10.1053 3.83212 13.303C2.50758 16.5007 2.16102 20.0194 2.83627 23.4141C3.51151 26.8087 5.17822 29.9269 7.62564 32.3744C10.0731 34.8218 13.1913 36.4885 16.5859 37.1637C19.9806 37.839 23.4993 37.4924 26.697 36.1679C29.8947 34.8434 32.6278 32.6003 34.5507 29.7225C36.4737 26.8446 37.5 23.4612 37.5 20C37.5 15.3587 35.6563 10.9075 32.3744 7.62563C29.0925 4.34374 24.6413 2.5 20 2.5ZM20 35C17.0333 35 14.1332 34.1203 11.6665 32.472C9.19972 30.8238 7.27713 28.4811 6.14181 25.7403C5.0065 22.9994 4.70945 19.9834 5.28823 17.0736C5.86701 14.1639 7.29562 11.4912 9.39341 9.3934C11.4912 7.29561 14.1639 5.867 17.0737 5.28822C19.9834 4.70944 22.9994 5.00649 25.7403 6.14181C28.4811 7.27712 30.8238 9.19971 32.472 11.6664C34.1203 14.1332 35 17.0333 35 20C35 23.9782 33.4197 27.7936 30.6066 30.6066C27.7936 33.4196 23.9783 35 20 35Z" fill="url(#paint0_linear_2957_15848)"/>
<path d="M14.375 13.7501C13.7569 13.7501 13.1527 13.9334 12.6388 14.2768C12.1249 14.6201 11.7244 15.1082 11.4879 15.6792C11.2514 16.2502 11.1895 16.8786 11.31 17.4848C11.4306 18.091 11.7283 18.6478 12.1653 19.0848C12.6023 19.5218 13.1592 19.8195 13.7653 19.9401C14.3715 20.0606 14.9999 19.9987 15.5709 19.7622C16.1419 19.5257 16.63 19.1252 16.9733 18.6113C17.3167 18.0974 17.5 17.4932 17.5 16.8751C17.5033 16.4638 17.4248 16.0559 17.2689 15.6753C17.113 15.2946 16.883 14.9488 16.5921 14.658C16.3013 14.3671 15.9555 14.1371 15.5748 13.9812C15.1942 13.8253 14.7863 13.7468 14.375 13.7501Z" fill="url(#paint1_linear_2957_15848)"/>
<path d="M25.625 13.7501C25.0069 13.7501 24.4027 13.9334 23.8888 14.2768C23.3749 14.6201 22.9744 15.1082 22.7379 15.6792C22.5014 16.2502 22.4395 16.8786 22.56 17.4848C22.6806 18.091 22.9783 18.6478 23.4153 19.0848C23.8523 19.5218 24.4092 19.8195 25.0153 19.9401C25.6215 20.0606 26.2499 19.9987 26.8209 19.7622C27.3919 19.5257 27.88 19.1252 28.2233 18.6113C28.5667 18.0974 28.75 17.4932 28.75 16.8751C28.7533 16.4638 28.6748 16.0559 28.5189 15.6753C28.363 15.2946 28.133 14.9488 27.8421 14.658C27.5513 14.3671 27.2055 14.1371 26.8248 13.9812C26.4442 13.8253 26.0363 13.7468 25.625 13.7501Z" fill="url(#paint2_linear_2957_15848)"/>
<path d="M20 30C21.7255 29.997 23.4208 29.5477 24.9212 28.6956C26.0573 28.0505 27.0524 27.191 27.8535 26.169C28.2789 25.6262 28.0766 24.8533 27.4813 24.5052C26.8957 24.1627 26.1509 24.3632 25.7112 24.8797C25.1426 25.5477 24.4592 26.1132 23.69 26.5479C22.5642 27.1841 21.2931 27.5184 20 27.5184C18.7069 27.5184 17.4358 27.1841 16.31 26.5479C15.5408 26.1132 14.8574 25.5477 14.2888 24.8797C13.8491 24.3632 13.1042 24.1627 12.5187 24.5052C11.9234 24.8533 11.7211 25.6262 12.1465 26.169C12.9476 27.191 13.9427 28.0505 15.0788 28.6956C16.5792 29.5477 18.2745 29.997 20 30Z" fill="url(#paint3_linear_2957_15848)"/>
</g>
<defs>
<linearGradient id="paint0_linear_2957_15848" x1="2.80358" y1="35.5556" x2="49.9518" y2="32.4603" gradientUnits="userSpaceOnUse">
<stop stop-color="#FFD45C"/>
<stop offset="1" stop-color="#9E5625"/>
</linearGradient>
<linearGradient id="paint1_linear_2957_15848" x1="11.3042" y1="19.6529" x2="19.7237" y2="19.1001" gradientUnits="userSpaceOnUse">
<stop stop-color="#FFD45C"/>
<stop offset="1" stop-color="#9E5625"/>
</linearGradient>
<linearGradient id="paint2_linear_2957_15848" x1="22.5542" y1="19.6529" x2="30.9737" y2="19.1001" gradientUnits="userSpaceOnUse">
<stop stop-color="#FFD45C"/>
<stop offset="1" stop-color="#9E5625"/>
</linearGradient>
<linearGradient id="paint3_linear_2957_15848" x1="11.586" y1="29.6604" x2="33.9963" y2="25.5385" gradientUnits="userSpaceOnUse">
<stop stop-color="#FFD45C"/>
<stop offset="1" stop-color="#9E5625"/>
</linearGradient>
<clipPath id="clip0_2957_15848">
<rect width="40" height="40" fill="white"/>
</clipPath>
</defs>
</svg>
