<svg width="44" height="36" viewBox="0 0 44 36" fill="none" xmlns="http://www.w3.org/2000/svg">
<path d="M31.75 33.75H41.75V29.75C41.75 26.4362 39.0638 23.75 35.75 23.75C33.8388 23.75 32.1362 24.6436 31.0376 26.0358M31.75 33.75H11.75M31.75 33.75V29.75C31.75 28.4376 31.4972 27.184 31.0376 26.0358M31.0376 26.0358C29.563 22.352 25.9604 19.75 21.75 19.75C17.5396 19.75 13.937 22.352 12.4625 26.0358M11.75 33.75H1.75V29.75C1.75 26.4362 4.4363 23.75 7.75 23.75C9.66122 23.75 11.3637 24.6436 12.4625 26.0358M11.75 33.75V29.75C11.75 28.4376 12.0028 27.184 12.4625 26.0358M27.75 7.75C27.75 11.0637 25.0638 13.75 21.75 13.75C18.4362 13.75 15.75 11.0637 15.75 7.75C15.75 4.4363 18.4362 1.75 21.75 1.75C25.0638 1.75 27.75 4.4363 27.75 7.75ZM39.75 13.75C39.75 15.9592 37.9592 17.75 35.75 17.75C33.5408 17.75 31.75 15.9592 31.75 13.75C31.75 11.5409 33.5408 9.75 35.75 9.75C37.9592 9.75 39.75 11.5409 39.75 13.75ZM11.75 13.75C11.75 15.9592 9.95914 17.75 7.75 17.75C5.54086 17.75 3.75 15.9592 3.75 13.75C3.75 11.5409 5.54086 9.75 7.75 9.75C9.95914 9.75 11.75 11.5409 11.75 13.75Z" stroke="url(#paint0_linear_2765_17561)" stroke-width="3.5" stroke-linecap="round" stroke-linejoin="round"/>
<defs>
<linearGradient id="paint0_linear_2765_17561" x1="2.09695" y1="31.9722" x2="55.8509" y2="27.561" gradientUnits="userSpaceOnUse">
<stop stop-color="#FFD45C"/>
<stop offset="1" stop-color="#9E5625"/>
</linearGradient>
</defs>
</svg>
