<svg width="96" height="96" viewBox="0 0 96 96" fill="none" xmlns="http://www.w3.org/2000/svg">
<rect x="0.5" y="0.5" width="95" height="95" rx="47.5" fill="url(#paint0_radial_4592_3627)"/>
<rect x="0.5" y="0.5" width="95" height="95" rx="47.5" stroke="#FFBA20"/>
<g filter="url(#filter0_d_4592_3627)">
<path d="M31.1323 49.6186C31.1323 44.1253 31.1323 38.6507 31.1323 33.1482C31.0445 33.144 30.962 33.1368 30.8794 33.1368C30.1579 33.1358 29.4363 33.1378 28.7138 33.1347C28.3442 33.1337 28.0717 32.9707 27.919 32.627C27.7776 32.3081 27.857 32.0233 28.0635 31.7622C28.4588 31.2648 28.8562 30.7684 29.2526 30.272C31.0187 28.0667 32.7838 25.8603 34.553 23.656C34.6428 23.5445 34.7492 23.4341 34.871 23.3608C35.2384 23.14 35.6493 23.2308 35.9496 23.592C36.2345 23.9357 36.5112 24.2865 36.7899 24.6353C37.8572 25.9697 38.9255 27.3051 39.9928 28.6394C40.8134 29.6652 41.633 30.6931 42.4557 31.7178C42.6487 31.9583 42.7571 32.2204 42.6704 32.53C42.5692 32.8933 42.2585 33.1285 41.8653 33.1347C41.3584 33.142 40.8516 33.1378 40.3448 33.1378C40.1043 33.1378 39.8638 33.1368 39.6233 33.1389C39.5572 33.1399 39.4912 33.1502 39.4158 33.1564C39.4158 38.6486 39.4158 44.1233 39.4158 49.6186C39.5046 49.6248 39.5799 49.633 39.6543 49.633C39.9464 49.6351 40.2385 49.6433 40.5306 49.631C40.8341 49.6186 41.0798 49.728 41.2975 49.9323C41.7858 50.3905 42.2802 50.8435 42.7726 51.2976C43.9772 52.4111 45.1828 53.5246 46.3874 54.6381C46.4318 54.6794 46.4762 54.7186 46.5195 54.7609C46.8808 55.118 46.9283 55.4905 46.6527 55.9209C46.2171 56.5999 45.7753 57.2759 45.3346 57.9518C42.2596 62.6814 39.1856 67.411 36.1107 72.1395C36.059 72.219 36.0095 72.2994 35.9517 72.3738C35.5884 72.8505 34.9422 72.8474 34.5943 72.3603C34.3951 72.0817 34.2176 71.7866 34.0297 71.4986C31.3614 67.3955 28.6931 63.2934 26.0259 59.1902C25.3333 58.1252 24.6407 57.0592 23.9491 55.9931C23.8975 55.9147 23.85 55.8321 23.8097 55.7475C23.6621 55.4451 23.7137 55.1634 23.9088 54.9023C23.9594 54.8342 24.0234 54.7743 24.0863 54.7166C25.8091 53.1252 27.5329 51.536 29.2536 49.9426C29.4869 49.7269 29.745 49.6124 30.067 49.6299C30.3416 49.6444 30.6172 49.6341 30.8918 49.632C30.965 49.631 31.0404 49.6237 31.1323 49.6186ZM35.6751 69.6545C35.6967 69.6627 35.7184 69.67 35.7401 69.6782C38.6437 65.2118 41.5484 60.7475 44.4819 56.2305C44.3436 56.2305 44.2693 56.2305 44.195 56.2305C42.7003 56.2305 41.2057 56.2305 39.711 56.2305C39.5903 56.2305 39.4705 56.2346 39.3508 56.2284C39.2362 56.2222 39.1753 56.2738 39.1474 56.3801C39.1 56.5628 39.0483 56.7444 39.0009 56.9271C38.7449 57.9064 38.4909 58.8868 38.2329 59.8651C37.9418 60.9683 37.6466 62.0705 37.3555 63.1736C37.0975 64.153 36.8466 65.1334 36.5886 66.1117C36.2954 67.2231 35.9971 68.3335 35.7019 69.445C35.6823 69.5121 35.6833 69.5843 35.6751 69.6545ZM34.8142 69.6813C34.839 69.671 34.8648 69.6596 34.8895 69.6493C34.871 69.5595 34.8555 69.4698 34.8328 69.381C34.7399 69.0239 34.6439 68.6679 34.5489 68.3119C34.36 67.5988 34.1711 66.8857 33.9822 66.1726C33.7613 65.3346 33.5404 64.4977 33.3206 63.6597C33.0955 62.8052 32.8716 61.9507 32.6465 61.0973C32.4215 60.2428 32.1975 59.3883 31.9735 58.5339C31.7908 57.8373 31.6092 57.1396 31.4234 56.4441C31.3666 56.2305 31.3594 56.2294 31.1416 56.2294C29.5189 56.2284 27.8952 56.2284 26.2726 56.2294C26.2199 56.2294 26.1683 56.2501 26.095 56.2656C29.0121 60.7557 31.9137 65.219 34.8142 69.6813ZM37.3782 51.2955C37.3875 51.3626 37.3854 51.3812 37.3927 51.3956C37.8954 52.4008 38.4001 53.4059 38.8997 54.4121C38.9668 54.5483 39.0618 54.5845 39.2073 54.5845C40.6762 54.5793 42.146 54.5824 43.6149 54.5814C43.6778 54.5814 43.7418 54.569 43.8182 54.5607C43.7965 54.5122 43.7924 54.4833 43.7759 54.4679C42.6652 53.4421 41.5525 52.4194 40.4429 51.3925C40.3469 51.3038 40.2426 51.279 40.1157 51.2801C39.2909 51.2842 38.4662 51.2821 37.6414 51.2832C37.5578 51.2821 37.4752 51.2904 37.3782 51.2955ZM26.7237 54.5566C26.8031 54.5669 26.8589 54.5814 26.9146 54.5814C28.3907 54.5824 29.8668 54.5783 31.3418 54.5855C31.5193 54.5865 31.5999 54.5143 31.6721 54.3677C32.1191 53.4606 32.5732 52.5577 33.0254 51.6526C33.078 51.5473 33.1286 51.4421 33.2008 51.2966C33.0832 51.2904 33.0016 51.2821 32.9211 51.2821C32.1056 51.2811 31.2912 51.2863 30.4758 51.278C30.3086 51.2759 30.1857 51.3255 30.0639 51.439C28.9749 52.4472 27.8818 53.4503 26.7897 54.4555C26.767 54.4761 26.7546 54.5081 26.7237 54.5566Z" fill="white"/>
<path d="M65.7983 62.829C65.9252 62.829 66.0089 62.829 66.0935 62.829C66.815 62.829 67.5365 62.8249 68.2591 62.8311C68.6627 62.8341 68.9527 63.0612 69.057 63.4358C69.1272 63.6876 69.058 63.9146 68.9115 64.1169C68.7339 64.3594 68.545 64.5926 68.3572 64.8279C66.9079 66.638 65.4576 68.4471 64.0084 70.2582C63.5357 70.8485 63.067 71.4409 62.5932 72.0301C62.4756 72.1777 62.3589 72.3294 62.2216 72.4574C61.9058 72.7525 61.4423 72.7474 61.1244 72.4553C61.0429 72.38 60.9706 72.2933 60.9014 72.2066C59.3025 70.2087 57.7036 68.2087 56.1058 66.2108C55.634 65.6205 55.1592 65.0323 54.6875 64.442C54.6018 64.3346 54.5151 64.2273 54.4356 64.1159C54.2395 63.8383 54.2044 63.5411 54.3716 63.2428C54.5265 62.9673 54.7794 62.8331 55.0962 62.8321C55.8095 62.8311 56.5228 62.8311 57.236 62.8311C57.3279 62.8311 57.4208 62.8311 57.5509 62.8311C57.5509 62.7031 57.5509 62.603 57.5509 62.5039C57.5509 58.6732 57.5509 54.8415 57.5509 51.0107C57.5509 49.2925 57.5467 47.5742 57.5571 45.857C57.5581 45.6331 57.491 45.5196 57.2835 45.437C55.9943 44.9221 54.8465 44.1811 53.8287 43.2379C52.6932 42.1852 51.8035 40.9551 51.1645 39.5444C50.3625 37.7735 50.026 35.916 50.1571 33.9769C50.2407 32.7436 50.5194 31.5517 50.9891 30.4072C51.6311 28.8428 52.5704 27.4816 53.807 26.3278C54.7174 25.4785 55.7434 24.7974 56.8768 24.2773C58.1145 23.7097 59.414 23.3733 60.7693 23.267C61.7489 23.1906 62.7233 23.2391 63.6946 23.4125C65.1057 23.6643 66.4217 24.1576 67.646 24.8954C68.6678 25.5115 69.5741 26.268 70.3607 27.1689C71.141 28.0615 71.7728 29.0481 72.2476 30.1338C72.613 30.9697 72.8803 31.8365 73.0372 32.7375C73.1694 33.4929 73.2426 34.2524 73.222 35.0181C73.157 37.4773 72.3962 39.7002 70.9315 41.6785C69.8167 43.1832 68.4036 44.3338 66.7273 45.1615C66.4734 45.2863 66.2122 45.3978 65.95 45.502C65.8437 45.5443 65.7993 45.6042 65.8014 45.7115C65.8024 45.7807 65.8014 45.8488 65.8014 45.9179C65.8014 51.4493 65.8014 56.9818 65.8014 62.5132C65.7983 62.602 65.7983 62.6948 65.7983 62.829ZM51.7746 34.8179C51.7859 40.2513 56.2255 44.693 61.6581 44.6806C67.1938 44.6672 71.5095 40.2523 71.5673 34.8974C71.6272 29.3298 67.1226 24.8118 61.5197 24.8944C56.177 24.9728 51.788 29.2927 51.7746 34.8179Z" fill="white"/>
</g>
<path d="M61.7014 26.5415C66.1348 26.556 69.8631 30.0956 69.9189 34.7096C69.9725 39.2184 66.3588 42.9923 61.752 43.0295C57.1978 43.0666 53.5159 39.466 53.4302 34.9408C53.3425 30.302 57.0678 26.5394 61.7014 26.5415ZM62.4941 38.9098C62.7873 38.9098 63.0433 38.915 63.2982 38.9088C63.7968 38.8964 64.1426 38.5589 64.1457 38.0625C64.1519 36.98 64.1488 35.8985 64.1457 34.8159C64.1457 34.723 64.1333 34.626 64.1044 34.5383C63.9826 34.1771 63.6967 33.9676 63.3055 33.9635C62.5839 33.9573 61.8624 33.9614 61.1409 33.9604C61.0501 33.9604 60.9592 33.9522 60.8663 33.948C60.8663 33.3908 60.8663 32.8634 60.8663 32.3072C61.9636 32.3072 63.0412 32.3072 64.1333 32.3072C64.1333 31.7499 64.1333 31.2226 64.1333 30.6622C63.8546 30.6622 63.5914 30.6643 63.3282 30.6612C63.0577 30.6581 62.7852 30.6736 62.5003 30.6488C62.4941 30.0884 62.5034 29.5611 62.4941 29.0296C61.9285 29.0296 61.402 29.0296 60.8447 29.0296C60.8447 29.5745 60.8447 30.1029 60.8447 30.6622C60.569 30.6622 60.3213 30.6591 60.0746 30.6632C59.5451 30.6715 59.2024 31.0059 59.1993 31.5342C59.1941 32.5992 59.1962 33.6642 59.1993 34.7292C59.1993 34.8386 59.2148 34.9542 59.2519 35.0564C59.382 35.4134 59.6659 35.6064 60.0664 35.6095C60.7796 35.6147 61.4919 35.6106 62.2051 35.6116C62.2959 35.6116 62.3868 35.6188 62.4725 35.6229C62.5189 35.9759 62.5055 37.0584 62.4477 37.2648C61.3793 37.2648 60.3017 37.2648 59.2127 37.2648C59.2127 37.8231 59.2127 38.3494 59.2127 38.9108C59.4914 38.9108 59.7546 38.9098 60.0178 38.9108C60.2893 38.9119 60.5608 38.9036 60.8467 38.917C60.8467 39.2194 60.8446 39.4856 60.8467 39.7509C60.8488 40.013 60.8374 40.2761 60.8529 40.5414C61.4155 40.5414 61.9429 40.5414 62.491 40.5414C62.4941 40.0006 62.4941 39.4784 62.4941 38.9098Z" fill="white"/>
<defs>
<filter id="filter0_d_4592_3627" x="23.7246" y="23.2319" width="49.501" height="53.4966" filterUnits="userSpaceOnUse" color-interpolation-filters="sRGB">
<feFlood flood-opacity="0" result="BackgroundImageFix"/>
<feColorMatrix in="SourceAlpha" type="matrix" values="0 0 0 0 0 0 0 0 0 0 0 0 0 0 0 0 0 0 127 0" result="hardAlpha"/>
<feOffset dy="4"/>
<feComposite in2="hardAlpha" operator="out"/>
<feColorMatrix type="matrix" values="0 0 0 0 0 0 0 0 0 0 0 0 0 0 0 0 0 0 0.16 0"/>
<feBlend mode="normal" in2="BackgroundImageFix" result="effect1_dropShadow_4592_3627"/>
<feBlend mode="normal" in="SourceGraphic" in2="effect1_dropShadow_4592_3627" result="shape"/>
</filter>
<radialGradient id="paint0_radial_4592_3627" cx="0" cy="0" r="1" gradientUnits="userSpaceOnUse" gradientTransform="translate(48.3999 48) rotate(119.216) scale(120.877 126.387)">
<stop stop-color="#FEBD55"/>
<stop offset="1" stop-color="#9E5625"/>
</radialGradient>
</defs>
</svg>
