<svg width="26" height="44" viewBox="0 0 26 44" fill="none" xmlns="http://www.w3.org/2000/svg">
<path d="M13.3313 0.000350822C12.7406 0.000350822 12.1406 0.0406633 11.5312 0.110976C8.2875 0.486913 5.45625 1.76004 3.45938 3.58535C1.45313 5.4116 0.253125 7.8566 0.553125 10.4441C0.815625 12.7503 2.22187 14.6816 4.21875 16.0128C4.4625 15.4316 4.77188 14.8972 5.08125 14.466C3.43125 13.3785 2.41875 11.9066 2.23125 10.2472C2.01562 8.40035 2.85937 6.5366 4.55625 4.9841C6.2625 3.43066 8.80313 2.25973 11.7375 1.92035C14.6719 1.58004 17.4188 2.13879 19.4344 3.26098C21.4406 4.3841 22.6875 6.00879 22.9031 7.84723C23.1094 9.6566 22.3219 11.4847 20.7094 13.0035C19.7123 12.3805 18.566 12.0373 17.3906 12.0097H17.1844C16.7063 12.0191 16.2375 12.0753 15.75 12.1785C12.2344 12.9941 10.05 16.4441 10.8562 19.9316C11.3531 22.0878 12.8813 23.7378 14.8125 24.4785L18.5344 40.6222L22.9406 43.3503L25.7063 38.9722L23.5031 37.6128L24.8906 35.4191L22.6875 34.0503L24.0656 31.866L21.8625 30.4972L23.25 28.3035L21.9844 22.8285C23.4 21.3191 24.0469 19.1628 23.55 16.9972C23.2969 15.9003 22.7812 14.9347 22.0687 14.1472C23.8406 12.366 24.8625 10.0691 24.5813 7.65973C24.2813 5.07691 22.5563 2.96848 20.1844 1.64941C18.2625 0.575976 15.8906 -0.0165242 13.3313 0.000350822ZM11.4375 12.7035C9.00937 12.8066 6.75937 14.2785 5.775 16.6597C4.92188 18.7128 5.2125 20.9441 6.35625 22.6785L0 37.9597L1.99687 42.741L6.79687 40.7816L5.79375 38.391L8.19375 37.416L7.2 35.0253L9.6 34.0503L8.59688 31.6597L10.9969 30.6753L13.1344 25.5378C11.2125 24.4597 9.74063 22.6128 9.20625 20.3066C8.55938 17.466 9.49687 14.6253 11.4375 12.7035ZM16.875 13.3785C17.7094 13.3691 18.4969 13.7066 19.0687 14.2597C18.5531 14.5878 17.9812 14.8785 17.3812 15.141C17.2312 15.0847 17.0719 15.066 16.9031 15.066C16.8469 15.066 16.8 15.066 16.7531 15.0753C16.0969 15.1503 15.6094 15.6472 15.525 16.266C15.5063 16.3597 15.5062 16.4535 15.5062 16.5378C15.5156 16.566 15.5156 16.6035 15.5156 16.6316C15.6094 17.4191 16.2938 17.9628 17.0813 17.8691C17.7188 17.7941 18.2063 17.316 18.3 16.716C18.8813 16.4535 19.425 16.1628 19.9406 15.8347C19.9594 15.9285 19.9781 16.0222 19.9875 16.116C20.1844 17.8035 18.9563 19.3503 17.2688 19.5472C15.5906 19.7441 14.0344 18.516 13.8469 16.8285C13.65 15.141 14.8781 13.5941 16.5656 13.3972C16.6688 13.3878 16.7719 13.3785 16.875 13.3785Z" fill="url(#paint0_linear_2746_10219)"/>
<defs>
<linearGradient id="paint0_linear_2746_10219" x1="0.222968" y1="40.942" x2="34.9483" y2="39.5901" gradientUnits="userSpaceOnUse">
<stop stop-color="#FFD45C"/>
<stop offset="1" stop-color="#9E5625"/>
</linearGradient>
</defs>
</svg>
