<svg width="32" height="32" viewBox="0 0 32 32" fill="none" xmlns="http://www.w3.org/2000/svg">
<path d="M27.8127 12.5447C26.5402 13.427 24.464 14.6216 22.5526 14.6216C21.3299 14.6216 20.025 13.8925 18.9477 13.2465C18.3862 12.9098 17.6763 12.9916 17.2025 13.4436C16.9603 13.674 16.779 13.961 16.6748 14.2787C16.5707 14.5964 16.5469 14.935 16.6057 15.2641L17.116 18.1403C17.5842 20.7788 19.1815 23.2911 21.834 23.6724C24.8072 24.0997 27.3297 23.2622 28.4329 22.7989C28.61 22.7238 28.7609 22.598 28.8668 22.4373C28.9727 22.2767 29.0287 22.0884 29.028 21.896V13.1774C29.028 13.0361 28.9893 12.8975 28.916 12.7767C28.8427 12.6559 28.7377 12.5576 28.6124 12.4923C28.487 12.4271 28.3462 12.3974 28.2052 12.4067C28.0642 12.4159 27.9285 12.4636 27.8127 12.5447Z" fill="url(#paint0_linear_2957_14023)"/>
<path d="M15.3622 15.4848C15.2674 14.9506 15.3062 14.4012 15.4752 13.8855C15.6441 13.3699 15.938 12.9041 16.3306 12.5296L23.1144 6.05894C23.1863 5.9903 23.2439 5.90799 23.2836 5.81685C23.3234 5.7257 23.3446 5.62754 23.3459 5.52811C23.3473 5.42868 23.3288 5.32998 23.2915 5.23779C23.2543 5.14559 23.199 5.06175 23.129 4.99117L21.5083 3.35862C21.369 3.21828 21.1798 3.13885 20.9821 3.13771C20.7843 3.13657 20.5942 3.21381 20.4533 3.35254L12.5748 11.1927C12.4269 11.3541 12.2471 11.483 12.0468 11.5713C11.8464 11.6595 11.6299 11.7052 11.411 11.7053H11.396C11.1743 11.7029 10.9556 11.654 10.7541 11.5618C10.5525 11.4695 10.3726 11.336 10.2259 11.1698L9.92261 10.8255C9.29452 10.1124 8.39013 9.70379 7.43986 9.70379C6.63957 9.70378 5.86466 9.98463 5.2502 10.4974C4.63573 11.0101 4.22069 11.7222 4.0774 12.5096L3.01642 18.3407C2.98976 18.4872 2.99562 18.6378 3.03358 18.7818C3.07154 18.9259 3.14068 19.0598 3.23611 19.1741C3.33154 19.2885 3.45092 19.3805 3.58582 19.4436C3.72072 19.5067 3.86783 19.5394 4.01677 19.5394C5.07188 19.5394 5.97621 18.7853 6.1658 17.7474L6.78146 14.3767C6.79634 14.2951 6.82715 14.2172 6.87212 14.1475C6.9171 14.0778 6.97536 14.0177 7.04358 13.9705C7.1118 13.9233 7.18865 13.89 7.26973 13.8726C7.35081 13.8551 7.43455 13.8537 7.51614 13.8686C7.59774 13.8835 7.67561 13.9143 7.74531 13.9593C7.815 14.0043 7.87515 14.0625 7.92233 14.1307C7.96951 14.199 8.00279 14.2758 8.02027 14.3569C8.03775 14.438 8.03908 14.5217 8.0242 14.6033L7.0362 20.0126L5.40445 29.3462C5.3897 29.4307 5.39361 29.5173 5.41591 29.6002C5.43822 29.683 5.47836 29.7599 5.53354 29.8255C5.58872 29.8912 5.6576 29.944 5.73534 29.9802C5.81307 30.0164 5.89779 30.0351 5.98355 30.0351H8.91821C9.05852 30.0352 9.19422 29.9851 9.3008 29.8938C9.40738 29.8026 9.47781 29.6762 9.49937 29.5376L10.967 20.0864C10.99 19.9371 11.0656 19.8009 11.18 19.7023C11.2945 19.6037 11.4404 19.5491 11.5915 19.5485C11.7426 19.5478 11.889 19.6011 12.0044 19.6987C12.1197 19.7963 12.1964 19.9318 12.2208 20.081L13.7755 29.5427C13.7981 29.6802 13.8688 29.8052 13.9751 29.8955C14.0814 29.9857 14.2162 30.0352 14.3556 30.0351H17.2427C17.3286 30.0351 17.4134 30.0163 17.4912 29.98C17.5691 29.9437 17.638 29.8908 17.6932 29.8249C17.7483 29.7591 17.7884 29.682 17.8106 29.599C17.8328 29.5161 17.8365 29.4292 17.8215 29.3447L15.3622 15.4848Z" fill="url(#paint1_linear_2957_14023)"/>
<path d="M9.60935 8.69767C9.60935 8.70027 9.61029 8.70277 9.61201 8.70472L11.1022 10.3969C11.1415 10.4395 11.1889 10.4737 11.2416 10.4976C11.2943 10.5215 11.3514 10.5345 11.4092 10.5358C11.4659 10.536 11.522 10.5244 11.5739 10.5015C11.6257 10.4787 11.6722 10.4452 11.7104 10.4033L11.8061 10.2987L13.3906 8.66364C13.4528 8.59937 13.4756 8.50828 13.4947 8.42085C13.5533 8.15451 13.6879 7.91089 13.8822 7.71959C14.3534 7.25413 14.6756 6.65917 14.8081 6.01024C14.9405 5.36131 14.8771 4.68766 14.626 4.07482C14.3748 3.46197 13.9473 2.93756 13.3975 2.56815C12.8478 2.19874 12.2008 2.00099 11.5385 2C10.8762 1.99902 10.2285 2.19483 9.67767 2.5626C9.12686 2.93037 8.69774 3.4535 8.44478 4.0656C8.19182 4.67769 8.12643 5.35114 8.2569 6.00047C8.38738 6.6498 8.70785 7.24571 9.17762 7.71258C9.31117 7.84005 9.4181 7.99276 9.49221 8.16186C9.56632 8.33095 9.60614 8.51308 9.60935 8.69767Z" fill="url(#paint2_linear_2957_14023)"/>
<defs>
<linearGradient id="paint0_linear_2957_14023" x1="16.6822" y1="23.1577" x2="33.4445" y2="21.954" gradientUnits="userSpaceOnUse">
<stop stop-color="#FFD45C"/>
<stop offset="1" stop-color="#9E5625"/>
</linearGradient>
<linearGradient id="paint1_linear_2957_14023" x1="3.17647" y1="28.5408" x2="30.6348" y2="27.1773" gradientUnits="userSpaceOnUse">
<stop stop-color="#FFD45C"/>
<stop offset="1" stop-color="#9E5625"/>
</linearGradient>
<linearGradient id="paint2_linear_2957_14023" x1="8.24938" y1="10.0616" x2="17.2685" y2="9.59793" gradientUnits="userSpaceOnUse">
<stop stop-color="#FFD45C"/>
<stop offset="1" stop-color="#9E5625"/>
</linearGradient>
</defs>
</svg>
