<svg width="14" height="10" viewBox="0 0 14 10" fill="currentColor" xmlns="http://www.w3.org/2000/svg">
<path fill-rule="evenodd" clip-rule="evenodd" d="M4 9C4 8.72386 4.22386 8.5 4.5 8.5H13.5C13.7761 8.5 14 8.72386 14 9C14 9.27614 13.7761 9.5 13.5 9.5H4.5C4.22386 9.5 4 9.27614 4 9Z" fill="white"/>
<path fill-rule="evenodd" clip-rule="evenodd" d="M4 5C4 4.72386 4.22386 4.5 4.5 4.5H13.5C13.7761 4.5 14 4.72386 14 5C14 5.27614 13.7761 5.5 13.5 5.5H4.5C4.22386 5.5 4 5.27614 4 5Z" fill="white"/>
<path fill-rule="evenodd" clip-rule="evenodd" d="M4 1C4 0.723858 4.22386 0.5 4.5 0.5H13.5C13.7761 0.5 14 0.723858 14 1C14 1.27614 13.7761 1.5 13.5 1.5H4.5C4.22386 1.5 4 1.27614 4 1Z" fill="white"/>
<path fill-rule="evenodd" clip-rule="evenodd" d="M1 2C1.55228 2 2 1.55228 2 1C2 0.447715 1.55228 0 1 0C0.447715 0 0 0.447715 0 1C0 1.55228 0.447715 2 1 2Z" fill="white"/>
<path fill-rule="evenodd" clip-rule="evenodd" d="M1 6C1.55228 6 2 5.55228 2 5C2 4.44772 1.55228 4 1 4C0.447715 4 0 4.44772 0 5C0 5.55228 0.447715 6 1 6Z" fill="white"/>
<path fill-rule="evenodd" clip-rule="evenodd" d="M1 10C1.55228 10 2 9.55229 2 9C2 8.44771 1.55228 8 1 8C0.447715 8 0 8.44771 0 9C0 9.55229 0.447715 10 1 10Z" fill="white"/>
</svg>
