<svg width="36" height="44" viewBox="0 0 36 44" fill="none" xmlns="http://www.w3.org/2000/svg">
<path d="M18 37.7998L27.9 27.8998C29.8578 25.9419 31.191 23.4473 31.7311 20.7316C32.2712 18.0159 31.9939 15.201 30.9342 12.643C29.8745 10.0849 28.0801 7.89846 25.7778 6.36018C23.4756 4.8219 20.7689 4.00085 18 4.00085C15.2311 4.00085 12.5244 4.8219 10.2222 6.36018C7.91992 7.89846 6.1255 10.0849 5.06583 12.643C4.00616 15.201 3.72883 18.0159 4.26891 20.7316C4.80899 23.4473 6.14222 25.9419 8.10001 27.8998L18 37.7998ZM18 43.4558L5.27201 30.7278C2.75469 28.2105 1.04037 25.0032 0.345857 21.5115C-0.348659 18.0199 0.00781369 14.4007 1.3702 11.1116C2.73258 7.82259 5.03969 5.01139 7.99977 3.03353C10.9598 1.05568 14.44 0 18 0C21.5601 0 25.0402 1.05568 28.0002 3.03353C30.9603 5.01139 33.2674 7.82259 34.6298 11.1116C35.9922 14.4007 36.3487 18.0199 35.6542 21.5115C34.9596 25.0032 33.2453 28.2105 30.728 30.7278L18 43.4558ZM18 21.9998C19.0609 21.9998 20.0783 21.5784 20.8284 20.8283C21.5786 20.0781 22 19.0607 22 17.9998C22 16.939 21.5786 15.9216 20.8284 15.1714C20.0783 14.4213 19.0609 13.9998 18 13.9998C16.9391 13.9998 15.9217 14.4213 15.1716 15.1714C14.4214 15.9216 14 16.939 14 17.9998C14 19.0607 14.4214 20.0781 15.1716 20.8283C15.9217 21.5784 16.9391 21.9998 18 21.9998ZM18 25.9998C15.8783 25.9998 13.8434 25.157 12.3432 23.6567C10.8429 22.1564 10 20.1216 10 17.9998C10 15.8781 10.8429 13.8433 12.3432 12.343C13.8434 10.8427 15.8783 9.99984 18 9.99984C20.1217 9.99984 22.1566 10.8427 23.6569 12.343C25.1572 13.8433 26 15.8781 26 17.9998C26 20.1216 25.1572 22.1564 23.6569 23.6567C22.1566 25.157 20.1217 25.9998 18 25.9998Z" fill="url(#paint0_linear_2746_13093)"/>
<defs>
<linearGradient id="paint0_linear_2746_13093" x1="0.312253" y1="41.0416" x2="48.873" y2="38.4006" gradientUnits="userSpaceOnUse">
<stop stop-color="#FFD45C"/>
<stop offset="1" stop-color="#9E5625"/>
</linearGradient>
</defs>
</svg>
