<svg width="40" height="40" viewBox="0 0 40 40" fill="none" xmlns="http://www.w3.org/2000/svg">
<path fill-rule="evenodd" clip-rule="evenodd" d="M7.75001 28C7.98608 27.6852 8.35656 27.5 8.75001 27.5H15C15.6904 27.5 16.25 28.0596 16.25 28.75C16.25 29.4404 15.6904 30 15 30H9.37501L3.75001 37.5H36.25L30.625 30H25C24.3097 30 23.75 29.4404 23.75 28.75C23.75 28.0596 24.3097 27.5 25 27.5H31.25C31.6435 27.5 32.0139 27.6852 32.25 28L39.75 38C40.0341 38.3788 40.0798 38.8855 39.868 39.309C39.6563 39.7325 39.2235 40 38.75 40H1.25001C0.776542 40 0.343713 39.7325 0.131973 39.309C-0.0797668 38.8855 -0.0340719 38.3788 0.250007 38L7.75001 28Z" fill="white"/>
<path fill-rule="evenodd" clip-rule="evenodd" d="M20 2.5C15.8579 2.5 12.5 5.85786 12.5 10C12.5 14.1421 15.8579 17.5 20 17.5C24.1421 17.5 27.5 14.1421 27.5 10C27.5 5.85786 24.1421 2.5 20 2.5ZM10 10C10 4.47715 14.4772 0 20 0C25.5229 0 30 4.47715 30 10C30 15.0995 26.1829 19.3075 21.25 19.9226V33.75C21.25 34.4404 20.6904 35 20 35C19.3097 35 18.75 34.4404 18.75 33.75V19.9226C13.8171 19.3075 10 15.0995 10 10Z" fill="white"/>
</svg>
