<svg width="48" height="48" viewBox="0 0 48 48" fill="none" xmlns="http://www.w3.org/2000/svg">
<path d="M24 44C35.0456 44 44 35.0456 44 24C44 12.9543 35.0456 4 24 4C12.9543 4 4 12.9543 4 24C4 35.0456 12.9543 44 24 44Z" stroke="url(#paint0_linear_2746_12518)" stroke-width="3.5" stroke-linecap="round" stroke-linejoin="round"/>
<path d="M30 16H24M24 16H22C19.7909 16 18 17.7909 18 20C18 22.2092 19.7909 24 22 24H26C28.2092 24 30 25.7908 30 28C30 30.2092 28.2092 32 26 32H24M24 16V12M18 32H24M24 32V36" stroke="url(#paint1_linear_2746_12518)" stroke-width="3.5" stroke-linecap="round" stroke-linejoin="round"/>
<defs>
<linearGradient id="paint0_linear_2746_12518" x1="4.34695" y1="41.7778" x2="58.2306" y2="38.2403" gradientUnits="userSpaceOnUse">
<stop stop-color="#FFD45C"/>
<stop offset="1" stop-color="#9E5625"/>
</linearGradient>
<linearGradient id="paint1_linear_2746_12518" x1="18.1041" y1="34.6667" x2="34.3214" y2="34.1343" gradientUnits="userSpaceOnUse">
<stop stop-color="#FFD45C"/>
<stop offset="1" stop-color="#9E5625"/>
</linearGradient>
</defs>
</svg>
