<svg width="28" height="27" viewBox="0 0 28 27" fill="none" xmlns="http://www.w3.org/2000/svg">
<path d="M27 19.5356C26.4477 19.5356 26 19.9834 26 20.5356V23.1215L21 18.1215V11.5356C21 11.3499 20.9483 11.1679 20.8507 11.0099C20.7531 10.8519 20.6134 10.7242 20.4473 10.6411L15 7.91744V2.36374L16.8789 4.24267C17.2693 4.63318 17.9025 4.63318 18.293 4.24269C18.6834 3.8522 18.6834 3.21909 18.293 2.8286L16.5 1.03564C15.1193 -0.345069 12.8807 -0.345067 11.5 1.03565L9.70704 2.8286C9.31655 3.21909 9.31655 3.8522 9.70704 4.24269C10.0975 4.63318 10.7307 4.63318 11.1211 4.24267L13 2.36374V7.91744L7.5527 10.6411C7.3866 10.7242 7.24691 10.8519 7.14929 11.0099C7.05167 11.1679 6.99998 11.3499 7 11.5356V18.1215L2 23.1215V20.5356C2 19.9834 1.55228 19.5356 1 19.5356C0.447715 19.5356 0 19.9834 0 20.5356V23.0356C0 24.9686 1.567 26.5356 3.5 26.5356H6C6.55228 26.5356 7 26.0879 7 25.5356C7 24.9834 6.55228 24.5356 6 24.5356H3.4141L8.1973 19.7524L13.5527 22.4301C13.6916 22.4995 13.8447 22.5356 14 22.5356C14.1553 22.5356 14.3084 22.4995 14.4473 22.4301L19.8027 19.7524L24.5859 24.5356H22C21.4477 24.5356 21 24.9834 21 25.5356C21 26.0879 21.4477 26.5356 22 26.5356H24.5C26.433 26.5356 28 24.9686 28 23.0356V20.5356C28 19.9834 27.5523 19.5356 27 19.5356ZM13 19.9174L9 17.9174V13.1538L13 15.1538V19.9174ZM14 13.4174L10.2363 11.5356L14 9.65384L17.7637 11.5356L14 13.4174ZM19 17.9174L15 19.9174V15.1538L19 13.1538V17.9174Z" fill="url(#paint0_linear_4073_39897)"/>
<defs>
<linearGradient id="paint0_linear_4073_39897" x1="0.242863" y1="24.9801" x2="37.9614" y2="22.5039" gradientUnits="userSpaceOnUse">
<stop stop-color="#FFD45C"/>
<stop offset="1" stop-color="#9E5625"/>
</linearGradient>
</defs>
</svg>
