<svg width="31" height="34" viewBox="0 0 31 34" fill="none" xmlns="http://www.w3.org/2000/svg">
<path d="M15.4163 0C11.9625 0 9.1626 2.79992 9.1626 6.2538C9.1626 9.2797 11.3116 11.8037 14.1667 12.3827V15.8371H8.75C6.67893 15.8371 5 17.5161 5 19.5871V20.9627C2.14698 21.5434 0 24.0664 0 27.0909C0 30.5447 2.79993 33.3447 6.2538 33.3447C9.70768 33.3447 12.5077 30.5447 12.5077 27.0909C12.5077 24.0637 10.3568 21.5389 7.5 20.9612V19.5871C7.5 18.8967 8.05965 18.3371 8.75 18.3371H22.0833C22.7737 18.3371 23.3333 18.8967 23.3333 19.5871V20.9627C20.4803 21.5434 18.3333 24.0664 18.3333 27.0909C18.3333 30.5447 21.1333 33.3447 24.5872 33.3447C28.041 33.3447 30.841 30.5447 30.841 27.0909C30.841 24.0637 28.6902 21.5389 25.8333 20.9612V19.5871C25.8333 17.5161 24.1543 15.8371 22.0833 15.8371H16.6667V12.3826C19.5215 11.8034 21.6702 9.27952 21.6702 6.2538C21.6702 2.79992 18.8703 0 15.4163 0ZM11.6626 6.2538C11.6626 4.18063 13.3432 2.5 15.4163 2.5C17.4895 2.5 19.1702 4.18063 19.1702 6.2538C19.1702 8.32698 17.4895 10.0076 15.4163 10.0076C13.3432 10.0076 11.6626 8.32698 11.6626 6.2538ZM2.5 27.0909C2.5 25.0177 4.18063 23.3371 6.2538 23.3371C8.32698 23.3371 10.0076 25.0177 10.0076 27.0909C10.0076 29.1641 8.32698 30.8447 6.2538 30.8447C4.18063 30.8447 2.5 29.1641 2.5 27.0909ZM24.5872 23.3371C26.6603 23.3371 28.341 25.0177 28.341 27.0909C28.341 29.1641 26.6603 30.8447 24.5872 30.8447C22.514 30.8447 20.8333 29.1641 20.8333 27.0909C20.8333 25.0177 22.514 23.3371 24.5872 23.3371Z" fill="url(#paint0_linear_2957_2500)"/>
<defs>
<linearGradient id="paint0_linear_2957_2500" x1="0.267505" y1="31.4922" x2="41.839" y2="28.968" gradientUnits="userSpaceOnUse">
<stop stop-color="#FFD45C"/>
<stop offset="1" stop-color="#9E5625"/>
</linearGradient>
</defs>
</svg>
