<svg width="36" height="36" viewBox="0 0 36 36" fill="none" xmlns="http://www.w3.org/2000/svg">
<path d="M33.8516 1.35004L2.14602 17.5832C1.91625 17.6981 1.72147 17.8725 1.58196 18.0882C1.44244 18.3039 1.3633 18.553 1.35277 18.8097C1.34224 19.0664 1.4007 19.3212 1.52207 19.5476C1.64344 19.774 1.82328 19.9637 2.04287 20.0971L23.9589 33.6271C24.1584 33.7499 24.3837 33.8244 24.6171 33.8445C24.8504 33.8646 25.0852 33.8298 25.3027 33.7429C25.519 33.6578 25.7117 33.5222 25.8648 33.3474C26.018 33.1727 26.1271 32.9638 26.1831 32.7383L33.8516 1.35004ZM33.8516 1.35004L11.3516 25.7768V33.1244C11.3514 33.2679 11.3937 33.4082 11.4729 33.5275C11.5522 33.6469 11.6649 33.7399 11.7968 33.7948C11.9287 33.8497 12.0739 33.8641 12.2139 33.8361C12.3539 33.808 12.4825 33.7389 12.5834 33.6374L16.9498 29.25" stroke="url(#paint0_linear_3109_5392)" stroke-width="2.7" stroke-linecap="round" stroke-linejoin="round"/>
<defs>
<linearGradient id="paint0_linear_3109_5392" x1="1.63346" y1="32.0445" x2="45.414" y2="29.1703" gradientUnits="userSpaceOnUse">
<stop stop-color="#FFD45C"/>
<stop offset="1" stop-color="#9E5625"/>
</linearGradient>
</defs>
</svg>
