<svg width="32" height="38" viewBox="0 0 32 38" fill="none" xmlns="http://www.w3.org/2000/svg">
<path d="M28.875 0C29.5709 0.000744485 30.2383 0.283019 30.7305 0.785156C31.2226 1.28732 31.4993 1.96854 31.5 2.67871V20.0889C31.5028 22.7598 30.7929 25.3815 29.4463 27.6719C28.0996 29.9623 26.1664 31.8354 23.8555 33.0898L15.75 37.5L7.64453 33.0898C5.33357 31.8354 3.40045 29.9623 2.05371 27.6719C0.707088 25.3815 -0.00280862 22.7598 0 20.0889V2.67871C0.000729619 1.96854 0.277407 1.28732 0.769531 0.785156C1.26165 0.283013 1.92905 0.000751486 2.625 0H28.875ZM12.75 19.6348L8.86523 15.75L6.75 17.8652L12.75 23.8652L24.75 11.8652L22.6348 9.75L12.75 19.6348Z" fill="url(#paint0_linear_2957_14070)"/>
<defs>
<linearGradient id="paint0_linear_2957_14070" x1="0.273221" y1="35.4167" x2="42.7603" y2="33.0737" gradientUnits="userSpaceOnUse">
<stop stop-color="#FFD45C"/>
<stop offset="1" stop-color="#9E5625"/>
</linearGradient>
</defs>
</svg>
