<svg width="30" height="35" viewBox="0 0 30 35" fill="none" xmlns="http://www.w3.org/2000/svg">
<path d="M12.5 18.2375L10.1438 15.8813C9.65706 15.3945 8.86796 15.3945 8.38126 15.8813C7.89456 16.368 7.89456 17.157 8.38126 17.6437L10.7322 19.9947C11.7086 20.971 13.2915 20.971 14.2678 19.9947L21.6188 12.6437C22.1055 12.157 22.1055 11.368 21.6188 10.8813C21.1321 10.3945 20.343 10.3945 19.8563 10.8813L12.5 18.2375Z" fill="url(#paint0_linear_2957_15125)"/>
<path d="M15 35L7.28026 30.8839C5.07934 29.7131 3.23881 27.965 1.9562 25.8273C0.673591 23.6896 -0.00266709 21.243 7.90515e-06 18.75V2.5C0.000702781 1.83717 0.264318 1.20169 0.733009 0.733001C1.2017 0.26431 1.83718 0.000694875 2.50001 0H27.5C28.1628 0.000694875 28.7983 0.26431 29.267 0.733001C29.7357 1.20169 29.9993 1.83717 30 2.5V18.75C30.0027 21.243 29.3264 23.6896 28.0438 25.8273C26.7612 27.965 24.9207 29.7131 22.7198 30.8839L15 35ZM2.50001 2.5V18.75C2.49784 20.7898 3.0512 22.7916 4.10069 24.5407C5.15017 26.2897 6.65616 27.72 8.45701 28.6779L15 32.1666L21.543 28.6779C23.3439 27.72 24.8498 26.2897 25.8993 24.5407C26.9488 22.7916 27.5022 20.7898 27.5 18.75V2.5H2.50001Z" fill="url(#paint1_linear_2957_15125)"/>
<defs>
<linearGradient id="paint0_linear_2957_15125" x1="0.260211" y1="33.0556" x2="40.7191" y2="30.7789" gradientUnits="userSpaceOnUse">
<stop stop-color="#FFD45C"/>
<stop offset="1" stop-color="#9E5625"/>
</linearGradient>
<linearGradient id="paint1_linear_2957_15125" x1="0.260211" y1="33.0556" x2="40.7191" y2="30.7789" gradientUnits="userSpaceOnUse">
<stop stop-color="#FFD45C"/>
<stop offset="1" stop-color="#9E5625"/>
</linearGradient>
</defs>
</svg>
