<svg width="37" height="37" viewBox="0 0 37 37" fill="none" xmlns="http://www.w3.org/2000/svg">
<path d="M7.84195 18.2258V11.3982C7.86222 10.0562 8.14713 8.7313 8.68034 7.49953C9.21356 6.26776 9.9846 5.15331 10.9493 4.22002C11.914 3.28673 13.0533 2.55296 14.3021 2.06075C15.5509 1.56854 16.8845 1.32755 18.2266 1.35162C19.5686 1.32755 20.9023 1.56854 22.151 2.06075C23.3998 2.55296 24.5392 3.28673 25.5038 4.22002C26.4685 5.15331 27.2396 6.26776 27.7728 7.49953C28.306 8.7313 28.5909 10.0562 28.6112 11.3982V18.2258M23.4189 31.8549C24.796 31.8549 26.1166 31.3079 27.0904 30.3342C28.0641 29.3605 28.6112 28.0399 28.6112 26.6629V20.8218M23.4189 31.8549C23.4189 32.7156 23.077 33.541 22.4684 34.1495C21.8598 34.7581 21.0344 35.1 20.1737 35.1H16.2794C15.4188 35.1 14.5933 34.7581 13.9848 34.1495C13.3762 33.541 13.0343 32.7156 13.0343 31.8549C13.0343 30.9943 13.3762 30.1689 13.9848 29.5604C14.5933 28.9518 15.4188 28.6099 16.2794 28.6099H20.1737C21.0344 28.6099 21.8598 28.9518 22.4684 29.5604C23.077 30.1689 23.4189 30.9943 23.4189 31.8549ZM3.94772 14.3318H6.54387C6.88814 14.3318 7.21831 14.4685 7.46175 14.7119C7.70519 14.9554 7.84195 15.2855 7.84195 15.6298V23.4179C7.84195 23.7621 7.70519 24.0923 7.46175 24.3357C7.21831 24.5791 6.88814 24.7159 6.54387 24.7159H3.94772C3.25917 24.7159 2.59883 24.4424 2.11196 23.9555C1.62509 23.4687 1.35156 22.8083 1.35156 22.1198V16.9278C1.35156 16.2393 1.62509 15.579 2.11196 15.0921C2.59883 14.6053 3.25917 14.3318 3.94772 14.3318ZM32.5054 24.7159H29.9093C29.565 24.7159 29.2348 24.5791 28.9914 24.3357C28.7479 24.0923 28.6112 23.7621 28.6112 23.4179V15.6298C28.6112 15.2855 28.7479 14.9554 28.9914 14.7119C29.2348 14.4685 29.565 14.3318 29.9093 14.3318H32.5054C33.194 14.3318 33.8543 14.6053 34.3412 15.0921C34.828 15.579 35.1016 16.2393 35.1016 16.9278V22.1198C35.1016 22.8083 34.828 23.4687 34.3412 23.9555C33.8543 24.4424 33.194 24.7159 32.5054 24.7159Z" stroke="url(#paint0_linear_3109_14960)" stroke-width="2.7" stroke-linecap="round" stroke-linejoin="round"/>
<defs>
<linearGradient id="paint0_linear_3109_14960" x1="1.6443" y1="33.225" x2="47.1087" y2="30.2402" gradientUnits="userSpaceOnUse">
<stop stop-color="#FFD45C"/>
<stop offset="1" stop-color="#9E5625"/>
</linearGradient>
</defs>
</svg>
