<svg width="44" height="31" viewBox="0 0 44 31" fill="none" xmlns="http://www.w3.org/2000/svg">
<path d="M8.862 27.7501H34.638C36.5242 27.7501 38.3332 27.0008 39.6669 25.667C41.0007 24.3332 41.75 22.5243 41.75 20.6381V15.7501C41.75 14.6892 41.3286 13.6718 40.5784 12.9216C39.8283 12.1715 38.8109 11.7501 37.75 11.7501C36.6891 11.7501 35.6717 12.1715 34.9216 12.9216C34.1714 13.6718 33.75 14.6892 33.75 15.7501V18.1501C33.75 18.5744 33.5814 18.9814 33.2814 19.2814C32.9813 19.5815 32.5743 19.7501 32.15 19.7501H11.35C10.9257 19.7501 10.5187 19.5815 10.2186 19.2814C9.91857 18.9814 9.75 18.5744 9.75 18.1501V15.7501C9.75 14.6892 9.32857 13.6718 8.57843 12.9216C7.82828 12.1715 6.81087 11.7501 5.75 11.7501C4.68913 11.7501 3.67172 12.1715 2.92157 12.9216C2.17143 13.6718 1.75 14.6892 1.75 15.7501V20.6381C1.75 22.5243 2.4993 24.3332 3.83306 25.667C5.16682 27.0008 6.97578 27.7501 8.862 27.7501Z" stroke="url(#paint0_linear_2765_5781)" stroke-width="3.5"/>
<path d="M37.75 11.7501C37.75 9.89006 37.75 8.96206 37.596 8.19006C37.2874 6.63807 36.5254 5.21247 35.4065 4.09356C34.2876 2.97465 32.862 2.2127 31.31 1.90406C30.538 1.75006 29.61 1.75006 27.75 1.75006H15.75C13.89 1.75006 12.962 1.75006 12.19 1.90406C10.638 2.2127 9.21241 2.97465 8.0935 4.09356C6.97459 5.21247 6.21263 6.63807 5.904 8.19006C5.75 8.96206 5.75 9.89006 5.75 11.7501" stroke="url(#paint1_linear_2765_5781)" stroke-width="3.5"/>
<path d="M37.75 29.7501V27.7501M5.75 29.7501V27.7501" stroke="url(#paint2_linear_2765_5781)" stroke-width="1.5" stroke-linecap="round"/>
<defs>
<linearGradient id="paint0_linear_2765_5781" x1="2.09695" y1="26.8612" x2="54.7934" y2="18.2124" gradientUnits="userSpaceOnUse">
<stop stop-color="#FFD45C"/>
<stop offset="1" stop-color="#9E5625"/>
</linearGradient>
<linearGradient id="paint1_linear_2765_5781" x1="6.02756" y1="11.1945" x2="47.4904" y2="2.48399" gradientUnits="userSpaceOnUse">
<stop stop-color="#FFD45C"/>
<stop offset="1" stop-color="#9E5625"/>
</linearGradient>
<linearGradient id="paint2_linear_2765_5781" x1="6.02756" y1="29.6389" x2="26.6104" y2="8.01872" gradientUnits="userSpaceOnUse">
<stop stop-color="#FFD45C"/>
<stop offset="1" stop-color="#9E5625"/>
</linearGradient>
</defs>
</svg>
