<svg width="40" height="40" viewBox="0 0 40 40" fill="none" xmlns="http://www.w3.org/2000/svg">
<g clip-path="url(#clip0_2957_5428)">
<path d="M38.75 36.25C38.75 36.9404 38.1904 37.5 37.5 37.5C36.8096 37.5 36.25 36.9404 36.25 36.25V33.75C36.25 32.7554 35.8549 31.8016 35.1517 31.0983C34.4484 30.3951 33.4946 30 32.5 30H27.5C26.5054 30 25.5516 30.3951 24.8483 31.0983C24.1451 31.8016 23.75 32.7554 23.75 33.75V36.25C23.75 36.9404 23.1904 37.5 22.5 37.5C21.8096 37.5 21.25 36.9404 21.25 36.25V33.75C21.25 32.0924 21.9085 30.5027 23.0806 29.3306C24.2527 28.1585 25.8424 27.5 27.5 27.5H32.5C34.1576 27.5 35.7473 28.1585 36.9194 29.3306C38.0915 30.5027 38.75 32.0924 38.75 33.75V36.25Z" fill="url(#paint0_linear_2957_5428)"/>
<path d="M30 15C30.7417 15 31.4667 15.2199 32.0834 15.632C32.7001 16.044 33.1807 16.6297 33.4646 17.3149C33.7484 18.0002 33.8226 18.7542 33.678 19.4816C33.5333 20.209 33.1761 20.8772 32.6517 21.4017C32.1272 21.9261 31.459 22.2833 30.7316 22.4279C30.0042 22.5726 29.2502 22.4984 28.5649 22.2145C27.8797 21.9307 27.294 21.4501 26.882 20.8334C26.4699 20.2167 26.25 19.4917 26.25 18.75C26.25 17.7554 26.6451 16.8016 27.3484 16.0983C28.0516 15.3951 29.0054 15 30 15ZM30 12.5C28.7639 12.5 27.5555 12.8666 26.5277 13.5533C25.4999 14.2401 24.6988 15.2162 24.2258 16.3582C23.7527 17.5003 23.6289 18.7569 23.8701 19.9693C24.1113 21.1817 24.7065 22.2953 25.5806 23.1694C26.4547 24.0435 27.5683 24.6388 28.7807 24.8799C29.9931 25.1211 31.2497 24.9973 32.3918 24.5242C33.5338 24.0512 34.5099 23.2501 35.1967 22.2223C35.8835 21.1945 36.25 19.9861 36.25 18.75C36.25 17.0924 35.5915 15.5027 34.4194 14.3306C33.2473 13.1585 31.6576 12.5 30 12.5Z" fill="url(#paint1_linear_2957_5428)"/>
<path d="M18.75 26.25C18.75 26.9404 18.1904 27.5 17.5 27.5C16.8096 27.5 16.25 26.9404 16.25 26.25V23.75C16.25 22.7554 15.8549 21.8016 15.1517 21.0983C14.4484 20.3951 13.4946 20 12.5 20H7.5C6.50544 20 5.55161 20.3951 4.84835 21.0983C4.14509 21.8016 3.75 22.7554 3.75 23.75V26.25C3.75 26.9404 3.19036 27.5 2.5 27.5C1.80964 27.5 1.25 26.9404 1.25 26.25V23.75C1.25 22.0924 1.90848 20.5027 3.08058 19.3306C4.25269 18.1585 5.8424 17.5 7.5 17.5H12.5C14.1576 17.5 15.7473 18.1585 16.9194 19.3306C18.0915 20.5027 18.75 22.0924 18.75 23.75V26.25Z" fill="url(#paint2_linear_2957_5428)"/>
<path d="M10 5C10.7417 5 11.4667 5.21993 12.0834 5.63199C12.7001 6.04404 13.1807 6.62971 13.4646 7.31494C13.7484 8.00016 13.8226 8.75416 13.6779 9.48159C13.5333 10.209 13.1761 10.8772 12.6517 11.4017C12.1272 11.9261 11.459 12.2833 10.7316 12.4279C10.0042 12.5726 9.25016 12.4984 8.56494 12.2145C7.87972 11.9307 7.29405 11.4501 6.88199 10.8334C6.46994 10.2167 6.25 9.49168 6.25 8.75C6.25 7.75544 6.64509 6.80161 7.34835 6.09835C8.05161 5.39509 9.00544 5 10 5ZM10 2.5C8.76387 2.5 7.5555 2.86656 6.52769 3.55331C5.49988 4.24007 4.6988 5.21619 4.22576 6.35823C3.75271 7.50027 3.62894 8.75693 3.87009 9.96932C4.11125 11.1817 4.70651 12.2953 5.58059 13.1694C6.45466 14.0435 7.56831 14.6388 8.78069 14.8799C9.99307 15.1211 11.2497 14.9973 12.3918 14.5242C13.5338 14.0512 14.5099 13.2501 15.1967 12.2223C15.8834 11.1945 16.25 9.98613 16.25 8.75C16.25 7.0924 15.5915 5.50269 14.4194 4.33058C13.2473 3.15848 11.6576 2.5 10 2.5Z" fill="url(#paint3_linear_2957_5428)"/>
</g>
<defs>
<linearGradient id="paint0_linear_2957_5428" x1="21.4018" y1="36.9444" x2="44.7691" y2="34.2598" gradientUnits="userSpaceOnUse">
<stop stop-color="#FFD45C"/>
<stop offset="1" stop-color="#9E5625"/>
</linearGradient>
<linearGradient id="paint1_linear_2957_5428" x1="23.8584" y1="24.3056" x2="40.6971" y2="23.2001" gradientUnits="userSpaceOnUse">
<stop stop-color="#FFD45C"/>
<stop offset="1" stop-color="#9E5625"/>
</linearGradient>
<linearGradient id="paint2_linear_2957_5428" x1="1.40179" y1="26.9444" x2="24.7691" y2="24.2598" gradientUnits="userSpaceOnUse">
<stop stop-color="#FFD45C"/>
<stop offset="1" stop-color="#9E5625"/>
</linearGradient>
<linearGradient id="paint3_linear_2957_5428" x1="3.85842" y1="14.3056" x2="20.6971" y2="13.2001" gradientUnits="userSpaceOnUse">
<stop stop-color="#FFD45C"/>
<stop offset="1" stop-color="#9E5625"/>
</linearGradient>
<clipPath id="clip0_2957_5428">
<rect width="40" height="40" fill="white"/>
</clipPath>
</defs>
</svg>
