<svg width="40" height="40" viewBox="0 0 40 40" fill="none" xmlns="http://www.w3.org/2000/svg">
<path d="M9.13468 3.32122C8.50858 2.51624 7.31862 2.44215 6.59751 3.16327L4.0127 5.74807C2.80401 6.95677 2.35967 8.66914 2.88776 10.1712C5.00844 16.2031 8.48038 21.8668 13.3068 26.6932C18.1332 31.5196 23.7969 34.9916 29.8288 37.1122C31.3309 37.6403 33.0432 37.196 34.2519 35.9873L36.8367 33.4025C37.5578 32.6814 37.4838 31.4914 36.6788 30.8653L30.9133 26.3811C30.5021 26.0612 29.9666 25.9482 29.4612 26.0745L23.9885 27.4427C22.502 27.8143 20.9296 27.3788 19.8461 26.2953L13.7047 20.1539C12.6212 19.0704 12.1857 17.498 12.5573 16.0115L13.9255 10.5388C14.0518 10.0334 13.9388 9.49794 13.6189 9.08671L9.13468 3.32122ZM4.71193 1.27769C6.56722 -0.577597 9.62874 -0.386993 11.2396 1.68409L15.7238 7.44957C16.5468 8.50759 16.8375 9.88521 16.5125 11.1856L15.1443 16.6582C14.9998 17.236 15.1691 17.8472 15.5903 18.2683L21.7317 24.4097C22.1528 24.8309 22.764 25.0002 23.3418 24.8557L28.8144 23.4875C30.1148 23.1625 31.4924 23.4533 32.5504 24.2762L38.3159 28.7604C40.387 30.3713 40.5776 33.4328 38.7223 35.2881L36.1375 37.8729C34.2882 39.7222 31.5222 40.5342 28.9444 39.6279C22.5439 37.3776 16.536 33.6935 11.4212 28.5788C6.30649 23.464 2.62237 17.4561 0.372095 11.0556C-0.534206 8.47781 0.277825 5.7118 2.12713 3.8625L4.71193 1.27769Z" fill="white"/>
</svg>
