<svg width="39" height="37" viewBox="0 0 39 37" fill="none" xmlns="http://www.w3.org/2000/svg">
<path d="M15.0538 15.2391C14.9401 15.2391 14.8279 15.2687 14.726 15.3257C14.6241 15.3827 14.5353 15.4654 14.4665 15.5675L1.35156 35.0496H37.6016L26.4449 18.4772C26.3761 18.3751 26.2873 18.2924 26.1854 18.2354C26.0835 18.1785 25.9713 18.1488 25.8576 18.1488C25.7439 18.1488 25.6317 18.1785 25.5298 18.2354C25.428 18.2924 25.3392 18.3751 25.2704 18.4772L21.4348 24.1746L15.641 15.5675C15.5722 15.4654 15.4834 15.3827 15.3816 15.3257C15.2797 15.2687 15.1675 15.2391 15.0538 15.2391ZM15.0538 15.2391L15.0534 1.34998M22.6707 9.50474L15.0534 9.50474V2.86929H22.6707V9.50474ZM22.6707 9.50474V6.64195H26.8265L24.8728 9.50474L26.8265 12.3684H20.2528V9.50474H22.6707ZM28.7908 35.1L21.4454 24.1746" stroke="url(#paint0_linear_3109_5390)" stroke-width="2.7" stroke-linecap="round" stroke-linejoin="round"/>
<defs>
<linearGradient id="paint0_linear_3109_5390" x1="1.66598" y1="33.225" x2="50.4659" y2="29.7839" gradientUnits="userSpaceOnUse">
<stop stop-color="#FFD45C"/>
<stop offset="1" stop-color="#9E5625"/>
</linearGradient>
</defs>
</svg>
