<svg width="40" height="42" viewBox="0 0 40 42" fill="none" xmlns="http://www.w3.org/2000/svg">
<path d="M14.75 25.483C16.1712 24.3498 17.9359 23.7343 19.7535 23.738C21.5712 23.7416 23.3334 24.3641 24.75 25.503M19.75 31.751H19.77M9.75 19.259C12.5878 16.9869 16.1147 15.749 19.75 15.749C23.3853 15.749 26.9122 16.9869 29.75 19.259M1.75 17.751C1.74986 17.1691 1.87667 16.5942 2.12158 16.0664C2.36648 15.5386 2.7236 15.0706 3.168 14.695L17.168 2.69496C17.89 2.08478 18.8047 1.75 19.75 1.75C20.6953 1.75 21.61 2.08478 22.332 2.69496L36.332 14.695C36.7764 15.0706 37.1335 15.5386 37.3784 16.0664C37.6233 16.5942 37.7501 17.1691 37.75 17.751V35.751C37.75 36.8118 37.3286 37.8292 36.5784 38.5794C35.8283 39.3295 34.8109 39.751 33.75 39.751H5.75C4.68913 39.751 3.67172 39.3295 2.92157 38.5794C2.17143 37.8292 1.75 36.8118 1.75 35.751V17.751Z" stroke="url(#paint0_linear_2746_6560)" stroke-width="3.5" stroke-linecap="round" stroke-linejoin="round"/>
<defs>
<linearGradient id="paint0_linear_2746_6560" x1="2.06225" y1="37.6398" x2="50.5789" y2="34.6224" gradientUnits="userSpaceOnUse">
<stop stop-color="#FFD45C"/>
<stop offset="1" stop-color="#9E5625"/>
</linearGradient>
</defs>
</svg>
